/* XPM */
static char *e0a091d285754fbbd469b311b3a80fba[] = {
/* columns rows colors chars-per-pixel */
"64 64 256 2 ",
"   c black",
".  c #0000A8",
"X  c #00A800",
"o  c #00A8A8",
"O  c #A80000",
"+  c #A800A8",
"@  c #A85400",
"#  c gray66",
"$  c gray33",
"%  c #5454FC",
"&  c #54FC54",
"*  c #54FCFC",
"=  c #FC5454",
"-  c #FC54FC",
";  c #FCFC54",
":  c gray99",
">  c #ECECEC",
",  c gainsboro",
"<  c #D0D0D0",
"1  c #C0C0C0",
"2  c #B4B4B4",
"3  c gray66",
"4  c #989898",
"5  c gray55",
"6  c #7C7C7C",
"7  c gray44",
"8  c #646464",
"9  c gray33",
"0  c #484848",
"q  c gray22",
"w  c #2C2C2C",
"e  c #202020",
"r  c #FC0000",
"t  c #EC0000",
"y  c #E00000",
"u  c #D40000",
"i  c #C80000",
"p  c #BC0000",
"a  c #B00000",
"s  c #A40000",
"d  c #980000",
"f  c #880000",
"g  c #7C0000",
"h  c #700000",
"j  c #640000",
"k  c #580000",
"l  c #4C0000",
"z  c #400000",
"x  c #FCD8D8",
"c  c #FCB8B8",
"v  c #FC9C9C",
"b  c #FC7C7C",
"n  c #FC5C5C",
"m  c #FC4040",
"M  c #FC2020",
"N  c #FC0000",
"B  c #FCA85C",
"V  c #FC9840",
"C  c #FC8820",
"Z  c #FC7800",
"A  c #E46C00",
"S  c #CC6000",
"D  c #B45400",
"F  c #9C4C00",
"G  c #FCFCD8",
"H  c #FCFCB8",
"J  c #FCFC9C",
"K  c #FCFC7C",
"L  c #FCF85C",
"P  c #FCF440",
"I  c #FCF420",
"U  c #FCF400",
"Y  c #E4D800",
"T  c #CCC400",
"R  c #B4AC00",
"E  c #9C9C00",
"W  c #848400",
"Q  c #706C00",
"!  c #585400",
"~  c #404000",
"^  c #D0FC5C",
"/  c #C4FC40",
"(  c #B4FC20",
")  c #A0FC00",
"_  c #90E400",
"`  c #80CC00",
"'  c #74B400",
"]  c #609C00",
"[  c #D8FCD8",
"{  c #BCFCB8",
"}  c #9CFC9C",
"|  c #80FC7C",
" . c #60FC5C",
".. c #40FC40",
"X. c #20FC20",
"o. c #00FC00",
"O. c #00FC00",
"+. c #00EC00",
"@. c #00E000",
"#. c #00D400",
"$. c #04C800",
"%. c #04BC00",
"&. c #04B000",
"*. c #04A400",
"=. c #049800",
"-. c #048800",
";. c #047C00",
":. c #047000",
">. c #046400",
",. c #045800",
"<. c #044C00",
"1. c #044000",
"2. c #D8FCFC",
"3. c #B8FCFC",
"4. c #9CFCFC",
"5. c #7CFCF8",
"6. c #5CFCFC",
"7. c #40FCFC",
"8. c #20FCFC",
"9. c #00FCFC",
"0. c #00E4E4",
"q. c #00CCCC",
"w. c #00B4B4",
"e. c #009C9C",
"r. c #008484",
"t. c #007070",
"y. c #005858",
"u. c #004040",
"i. c #5CBCFC",
"p. c #40B0FC",
"a. c #20A8FC",
"s. c #009CFC",
"d. c #008CE4",
"f. c #007CCC",
"g. c #006CB4",
"h. c #005C9C",
"j. c #D8D8FC",
"k. c #B8BCFC",
"l. c #9C9CFC",
"z. c #7C80FC",
"x. c #5C60FC",
"c. c #4040FC",
"v. c #2024FC",
"b. c #0004FC",
"n. c #0000FC",
"m. c #0000EC",
"M. c #0000E0",
"N. c #0000D4",
"B. c #0000C8",
"V. c #0000BC",
"C. c #0000B0",
"Z. c #0000A4",
"A. c #000098",
"S. c #000088",
"D. c #00007C",
"F. c #000070",
"G. c #000064",
"H. c #000058",
"J. c #00004C",
"K. c #000040",
"L. c #282828",
"P. c #FCE034",
"I. c #FCD424",
"U. c #FCCC18",
"Y. c #FCC008",
"T. c #FCB400",
"R. c #003800",
"E. c #002800",
"W. c #9800E4",
"Q. c #8000CC",
"!. c #7400B4",
"~. c #60009C",
"^. c #500084",
"/. c #440070",
"(. c #340058",
"). c #280040",
"_. c #FCD8FC",
"`. c #FCB8FC",
"'. c #FC9CFC",
"]. c #FC7CFC",
"[. c #FC5CFC",
"{. c #FC40FC",
"}. c #FC20FC",
"|. c #FC00FC",
" X c #E000E4",
".X c #C800CC",
"XX c #B400B4",
"oX c #9C009C",
"OX c #840084",
"+X c #6C0070",
"@X c #580058",
"#X c #400040",
"$X c #FCE8DC",
"%X c #FCE0D0",
"&X c #FCD8C4",
"*X c #FCD4BC",
"=X c #FCCCB0",
"-X c #FCC4A4",
";X c #FCBC9C",
":X c #FCB890",
">X c #FCB080",
",X c #FCA470",
"<X c #FC9C60",
"1X c #F0945C",
"2X c #E88C58",
"3X c #DC8854",
"4X c #D08050",
"5X c #C87C4C",
"6X c #BC7848",
"7X c #B47044",
"8X c #A86840",
"9X c #A0643C",
"0X c #9C6038",
"qX c #905C34",
"wX c #885830",
"eX c #80502C",
"rX c #744C28",
"tX c #6C4824",
"yX c #5C4020",
"uX c #543C1C",
"iX c #483818",
"pX c #403018",
"aX c #382C14",
"sX c #28200C",
"dX c #600064",
"fX c #006464",
"gX c #006060",
"hX c #00001C",
"jX c #00002C",
"kX c #302410",
"lX c #480048",
"zX c #500050",
"xX c #000034",
"cX c gray11",
"vX c #4C4C4C",
"bX c gray36",
"nX c gray25",
"mX c gray19",
"MX c #343434",
"NX c #D8F4F4",
"BX c #B8E8E8",
"VX c #9CDCDC",
"CX c #74C8C8",
"ZX c #48C0C0",
"AX c #20B4B4",
"SX c #20B0B0",
"DX c #00A4A4",
"FX c #009898",
"GX c #008C8C",
"HX c #008484",
"JX c #007C7C",
"KX c #007878",
"LX c #007474",
"PX c #007070",
"IX c #006C6C",
"UX c #980088",
/* pixels */
"mXw mXw mXw mXw mXw w w MXMXw w mXw w mXL.w q L.mXw mXw mXw mXw mXw mXw mXw mXw mXw w w MXMXw w mXw w mXL.w q L.mXw mXw mXw mXw ",
"4 4 4 4 4 # 4 # # 4 4 5 5 5 mXmXq 4 8 7 7 5 6 5 5 5 5 5 5 5 5 5 5 4 4 4 4 4 4 4 4 4 5 5 5 5 mXmXq 2 4 7 6 5 5 4 # 5 5 5 4 4 4 4 ",
"6 7 7 6 6 5 6 5 5 7 7 8 8 vXcXmXL.6 mXnXnXbXbX8 bXbX8 8 7 8 bX8 8 7 6 6 7 6 7 6 7 8 8 8 7 $ cXmXL.# 8 vX$ 8 8 7 6 8 8 7 7 7 7 6 ",
"6 7 7 6 6 6 6 5 6 8 7 bX7 vXw mXMX7 $ vXMX$ bX8 bXbX8 8 8 8 bX8 7 6 6 7 7 6 6 6 7 8 bX7 7 $ w mXMX# 7 vXvX8 bX7 6 8 8 8 7 7 7 6 ",
"6 7 7 6 6 5 5 4 6 bX8 8 7 vXnXL.L.7 q $ q $ $ bXbX8 8 8 8 bXbX8 7 6 6 6 6 6 6 7 7 8 8 7 7 $ nXL.L.# 7 0 vX8 bX7 6 8 8 7 7 7 6 6 ",
"6 7 7 6 6 6 5 5 6 8 bX7 7 vXL.mXmX7 q $ nX0 bXbXbX8 8 8 8 8 bX8 7 6 6 7 6 6 6 7 8 8 7 7 7 $ L.mXmX4 6 0 0 bX8 7 6 8 7 7 7 7 6 6 ",
"6 7 7 6 5 5 5 5 7 7 8 7 7 vXe q mX7 MX$ nXnXbX$ $ 8 8 7 8 8 bXbX7 6 6 7 6 6 5 7 8 8 7 7 7 $ e q mX4 7 vXvX$ bX7 6 7 7 7 7 6 7 6 ",
"6 7 6 6 5 5 5 5 7 7 bX7 7 vXw w w 7 mXbXvX0 $ $ $ 8 8 8 8 8 $ 8 6 6 6 6 6 5 5 7 7 8 8 7 7 $ w w w 5 8 0 bX$ bX7 6 7 7 7 6 6 7 5 ",
"6 7 6 6 6 5 5 5 7 7 8 7 7 vXL.mXw 6 nX0 0 nX$ bX$ bX8 8 8 8 bX7 6 6 6 6 6 5 5 7 6 8 8 7 7 $ L.mXw 4 7 0 bX$ bX8 6 6 6 6 6 6 6 4 ",
"6 7 6 6 6 5 4 5 7 7 bX7 7 vXw mXw 6 nXvXnXq vX8 bXbX8 8 8 bXbX7 7 6 6 6 5 5 5 7 6 8 bX8 7 $ w mXw 4 8 $ $ bX$ bX7 6 6 6 6 6 5 4 ",
"7 7 7 7 6 5 5 6 6 7 bX7 7 0 mXe MX6 q 0 nX$ $ bXbXbX8 8 bXbX8 7 6 6 7 6 5 5 5 7 7 7 bXbX7 $ mXe MX4 8 bX$ bXbX8 7 6 6 6 6 6 4 5 ",
"7 7 6 7 6 5 5 6 6 7 bX8 7 0 w mXmX6 q nXvX$ $ bXbXbX8 8 bX8 8 6 6 6 7 6 5 5 5 7 7 7 8 $ 8 $ w mXw # bX0 vX8 8 8 7 6 6 6 5 5 5 6 ",
"7 7 6 7 6 4 4 5 6 7 8 8 7 0 L.mXq 6 nXq $ vX$ $ 8 bX8 8 bX8 8 6 6 6 7 7 5 5 5 7 7 7 7 bX8 $ L.mXMX4 7 vX0 8 bXbX8 6 5 5 5 6 5 6 ",
"bX$ bX$ bX7 8 7 bXvXvXvX$ vXmXw w 7 w w nXq q 0 0 0 vX0 nX0 $ bXbXbX$ $ 8 7 8 $ $ $ bX0 0 $ mXw w 6 $ MXMX0 0 0 vXbX8 8 bXbX8 8 ",
"e e e e e e e e e L.e cXcXw cXMXL.e e e e e e cXe e e e e e e e e e e e e e e e e L.e cXcXw cXMXL.mXe e e e e e e e e e e e e e ",
"w w w w w w w w w w L.mXw e MXw MXe w e e e w w w w w w w w w w w w w w w w w w w w L.mXw e MXw MXe e e e e w w w w w w w w w w ",
"mXw w mXL.w q L.mXw mXw mXw mXw mXw mXw mXw mXw mXw w w MXMXw w mXw w mXL.w q L.mXw mXw mXw mXw mXw mXw mXw mXw mXw w w MXMXw w ",
"q 2 4 4 # # 4 # # 5 5 4 4 5 5 5 5 6 6 7 6 6 7 6 5 5 5 5 6 5 mXmXq 2 4 4 4 # # 4 4 5 5 5 5 4 # 4 4 5 4 7 7 6 5 5 4 4 # # # 4 mXmX",
"L.4 6 7 5 5 6 5 5 8 8 7 7 7 bX8 bXbX$ q 0 nXnX$ 8 8 8 $ bX$ cXmXL.4 7 7 6 5 6 6 7 7 8 8 7 6 6 5 6 8 8 q nXbXbX8 7 6 5 6 5 8 cXmX",
"MX5 6 6 5 4 6 5 7 bX8 7 7 7 bX8 bX$ $ nXnXnXnXvXbX8 8 $ bX$ w mXq 4 6 6 6 5 6 7 7 8 8 8 7 6 6 5 6 8 8 q nXbXbX8 7 6 5 6 6 8 w mX",
"L.5 7 6 5 4 6 6 7 8 7 7 7 8 bX8 bX$ 0 0 nXnXnX0 bX8 bXvX8 $ nXL.w 4 7 6 6 6 7 8 bXbX8 8 6 6 6 6 7 8 bXMXq bXbX8 6 5 5 6 6 8 nXL.",
"MX5 7 6 5 5 6 5 7 8 7 7 7 8 bX8 $ 0 0 0 nX$ nXvX8 8 bX$ 8 $ L.mXMX4 7 7 6 6 7 8 $ bX8 8 6 6 6 5 7 7 bXq nX$ bX7 5 5 6 5 6 7 L.mX",
"MX5 7 6 5 5 5 4 7 8 7 7 7 7 8 8 $ vX$ vXnX0 nX$ 8 bX$ bX8 $ e q mX4 7 6 6 7 7 7 8 bX8 7 6 6 6 5 7 7 bXq nX8 7 6 5 5 6 5 7 7 e q ",
"MX5 7 6 5 5 5 4 7 7 7 7 7 7 8 8 bX$ vXvXnXnX0 vX$ bX$ 8 8 $ w w w 4 7 6 6 7 8 7 7 7 6 7 6 6 5 4 6 8 bXq vX6 6 6 5 6 6 5 7 8 w w ",
"mX5 7 6 5 5 5 4 6 7 7 7 7 7 7 8 bX0 0 0 nXnX0 0 $ $ $ bX8 $ L.mXw 4 7 6 7 6 6 8 7 7 6 7 6 6 5 5 6 bX$ q bX8 6 6 6 6 5 5 6 8 L.mX",
"mX5 7 6 5 5 4 4 6 7 8 7 7 7 8 8 8 vXvXvXnXvX0 0 $ $ $ bX8 $ w mXw 4 6 6 7 6 6 7 8 7 6 7 6 6 5 5 7 bXbX$ bX8 7 7 6 6 6 5 6 8 w mX",
"MX5 7 6 6 5 5 4 6 7 bX8 7 7 8 8 8 vXvXvXq $ nX0 $ $ $ bX8 $ mXe MX4 7 6 6 5 6 8 bXbX8 7 5 7 4 5 8 $ 8 8 7 8 8 7 6 6 5 5 6 bXmXe ",
"w 5 7 5 5 5 5 5 5 6 8 8 7 7 8 8 $ vX$ $ q 0 nX0 bX$ $ $ bXvXw mXw 5 7 6 6 5 5 7 8 bXbX7 5 6 4 7 8 $ bXbX6 6 6 6 6 6 6 5 6 bXw mX",
"MX5 7 5 5 4 4 4 5 5 8 7 7 7 8 8 0 vX$ $ q nXnXvXbX$ $ vXbXnXL.mXMX5 8 6 5 6 6 5 8 8 8 8 5 5 5 8 7 bX$ $ 7 6 5 5 6 6 5 4 5 $ L.mX",
"w 6 $ bX8 7 7 7 8 8 0 $ $ $ vXnXq q MXq w q mXq 0 nXnXq q nXmXw w 7 0 $ 8 bX8 8 vXvXvXvX8 8 bX0 $ 0 q w nXvXbX8 8 8 7 7 8 $ mXw ",
"L.mXcXe e e cXcXe e e e e e e e e e e e e e e e e L.e cXcXw cXMXL.mXe e e e e e e e e e e e e e e e e e e e e e e L.e cXcXw cXMX",
"MXe w w L.w w w w w w w w w w w w w w w w w w w w w L.mXw e MXw MXe mXe e e e w w w w w w w w w w w w w w w w w w w L.mXw e MXw ",
"mXw mXw mXw mXw mXw w w MXMXw w mXw w mXL.w q L.mXw mXw mXw mXw mXw mXw mXw mXw mXw w w MXMXw w mXw w mXL.w q L.mXw mXw mXw mXw ",
"4 4 4 # # 4 4 4 4 4 4 4 5 5 mXmXq 4 6 6 6 8 7 6 6 5 5 5 5 6 5 5 5 5 5 4 # # # 4 5 5 4 4 2 4 mXmXq 4 7 7 6 6 5 4 # 4 # # # 4 4 # ",
"6 6 6 6 6 7 7 5 5 5 6 6 7 vXcXmXL.7 $ bX0 q 0 $ $ 8 8 bX8 $ $ bXbX8 8 7 6 5 5 6 bX8 6 6 5 8 cXmXL.6 0 q bXbX8 6 5 6 5 5 6 6 6 6 ",
"6 6 6 6 6 7 7 5 5 5 5 6 7 $ w mXMX6 8 0 0 q vXbXbX8 8 bX8 bX$ $ bXbX7 6 6 5 6 6 bXbX7 6 4 8 w mXq 6 vXnX$ $ 8 6 6 6 6 5 5 7 6 6 ",
"6 6 6 5 6 8 8 5 5 5 5 5 7 vXnXL.L.6 $ 0 vXnXnXbXbX8 8 bX8 8 $ 0 bXbX6 6 6 6 6 6 7 bX8 7 4 bXnXL.L.6 nXnXbX$ 8 6 5 6 6 6 6 7 6 6 ",
"6 6 7 5 5 7 bX6 5 5 6 5 6 vXL.mXmX6 $ $ vXnX0 bX$ 8 8 bX8 8 $ vXbX8 6 6 6 5 6 6 7 8 8 8 5 bXL.mXMX6 0 0 $ $ 8 6 5 5 6 6 6 7 6 6 ",
"6 6 6 5 5 7 7 8 5 6 6 6 6 vXe q mX6 vX0 0 nX$ $ $ 8 8 8 8 8 bX$ vX7 7 6 5 5 5 6 6 8 8 bX7 $ e q mX6 vX0 $ 8 8 7 6 6 5 5 6 7 6 5 ",
"6 6 6 5 5 7 6 7 7 6 5 6 6 vXw w w 6 nX0 0 q vX$ $ 8 8 8 8 bX$ 0 nX8 7 6 5 5 5 6 5 6 7 7 7 vXw w w 6 0 0 bX8 8 6 5 6 6 5 6 7 6 5 ",
"6 6 6 6 5 7 7 7 6 5 6 6 5 $ L.mXw 6 vX$ 0 nXnX$ bXbX8 8 bX7 8 vX0 8 7 7 5 5 5 6 5 6 6 7 6 $ L.mXw 6 nXnX$ bX8 6 6 6 6 6 6 7 6 5 ",
"5 6 6 6 5 7 6 7 5 5 6 7 6 $ w mXw 6 vXvX0 nXMXvXbXbX8 8 8 8 7 $ 0 bX7 7 5 5 5 6 6 6 8 bX6 $ w mXw 6 nXnXbX8 8 6 6 7 6 6 6 6 5 5 ",
"5 6 6 6 6 7 5 8 6 5 6 7 6 $ mXe MX6 0 $ vX0 nX0 bX8 8 bXbXbX8 8 0 $ 7 7 5 5 5 6 6 6 8 7 6 $ mXe MX6 nX$ 8 8 8 5 5 6 6 6 6 7 5 5 ",
"5 7 6 6 6 7 6 8 7 6 5 6 6 $ w mXw 6 0 bXvXnXnX0 vX8 bX8 bXbX8 7 $ vX7 7 6 5 5 6 6 6 bX6 5 $ w mXmX6 0 vX8 8 8 6 5 6 6 6 6 7 5 5 ",
"5 7 6 6 5 7 7 7 6 6 5 6 6 bXL.mXMX6 vX8 $ nXMXvXvXbXbX8 bXbX8 7 $ $ 8 7 6 5 5 6 6 7 8 5 6 vXL.mXMX6 nXvX8 8 8 7 6 6 6 6 6 6 5 5 ",
"8 $ 8 8 8 bX$ bXbX$ 8 8 8 bXmXw w 7 q nX0 q L.q nXnX0 vXvX0 vXvXnXnXvX$ bX7 8 8 bX$ 0 8 8 vXmXw w 7 mXq 0 vXvXbX8 8 bXbXbXbX8 8 ",
"e e e e e e e e e L.e cXcXw cXMXL.mXcXe e e cXcXe e e e e e e e e e e e e e e e e L.e cXcXw cXMXL.mXcXe e e cXcXe e e e e e e e ",
"w w w w w w w w w w L.mXw e MXw MXe w w L.w w w w w w w w w w w w w w w w w w w w w L.mXw e MXw MXe w w L.w w w w w w w w w w w ",
"mXw w mXL.w q L.mXw mXw mXw mXw mXw mXw mXw mXw mXw w w MXMXw w mXw w mXL.w q L.mXw mXw mXw mXw mXw mXw mXw mXw mXw w w MXMXw w ",
"q 2 # 4 # 4 5 4 4 4 # # 4 4 5 6 6 6 7 7 5 5 8 7 6 5 5 5 5 5 mXmXq # 5 4 4 # 2 # 4 5 4 4 5 5 5 6 6 6 7 7 5 5 5 5 4 # 4 # # 4 mXmX",
"L.# 5 6 5 6 8 7 7 6 5 5 6 6 8 $ bX$ nX0 8 bX0 q vXbX8 bX8 vXcXmXL.5 8 7 6 5 4 5 6 7 7 7 8 8 8 0 nX$ nXvXbX8 8 7 6 6 6 6 6 8 cXmX",
"q # 6 6 5 6 bX7 7 6 6 5 6 6 8 bX8 bXnXvXbXbXvXnX$ 8 8 bX8 vXw mXMX5 7 7 6 5 5 5 7 8 6 7 8 7 bXvX0 $ nXvXbX8 8 7 6 6 7 6 6 8 w mX",
"MX# 6 7 5 7 bX7 7 6 6 5 6 7 8 8 8 $ nXvXbXbXvX0 $ 8 8 bX8 0 nXL.L.6 bX7 6 5 5 6 7 8 6 6 8 7 bX$ vX$ nX$ bX8 bX8 6 6 7 5 6 bXnXL.",
"q # 6 6 6 7 bX7 6 6 6 5 6 7 8 8 8 vXnXvXbXbX0 q vX8 8 bX8 vXL.mXmX6 bX7 6 5 5 6 8 8 6 6 7 8 bX$ 0 nXnX$ bXbX8 8 6 6 7 5 6 bXL.mX",
"MX# 6 6 6 7 bX7 6 6 6 4 6 7 8 8 8 0 q vXbX8 0 w vX8 8 bX8 vXe q mX6 bX7 6 6 5 6 7 8 7 8 7 8 $ vXvX0 q vX8 bX8 8 6 6 7 5 6 bXe q ",
"w # 6 6 6 7 8 7 7 6 6 4 7 7 8 8 bXvX0 $ 8 8 0 MXnX8 8 bX8 vXw w w 6 bX7 6 6 4 5 6 8 8 8 8 bXbXvX$ vXmX0 bX8 8 8 6 5 6 5 6 bXw w ",
"w # 6 6 6 7 bX7 7 6 6 4 7 7 8 8 $ vXvX$ 8 8 nXmX0 bX8 bX8 0 L.mXw 6 bX7 6 6 4 5 6 8 bX8 7 bX8 vXbX$ mX$ $ $ 8 8 7 6 5 4 6 8 L.mX",
"w # 6 6 6 8 bX7 7 6 5 5 7 7 8 $ vX0 vXbXbX8 nXmX0 $ bXbX8 0 w mXw 6 bX6 6 6 4 4 6 8 8 7 7 bX8 vXbX8 MX$ $ bX8 8 7 7 7 5 6 8 w mX",
"MX# 6 6 5 8 bX7 7 6 6 5 7 6 bX0 bX$ vXbXbX8 0 MXvX$ bXbX8 0 mXe MX5 bX7 6 6 4 4 6 $ 8 7 8 bXbX$ bX8 q vXvXbX8 8 7 6 6 5 6 8 mXe ",
"w # 6 6 5 bX8 7 7 6 5 4 7 6 $ $ 8 $ $ bXbX8 0 nXbXbXbX$ bXvXw mXmX6 $ 7 7 6 5 4 7 bX7 8 8 8 bX$ bX8 MXnX$ 8 8 8 7 7 6 5 6 8 w mX",
"MX# 6 5 5 8 8 7 7 6 5 5 7 6 $ $ 8 $ $ bXbX8 0 0 bXbXbX$ bX0 L.mXq 6 $ 7 7 7 5 4 8 $ 7 8 8 8 $ bXbXbXMX0 bX8 8 7 7 6 5 5 6 8 L.mX",
"w 5 bX8 bX0 vX$ $ 8 8 bX$ bXnXnXvXnX0 0 0 0 nXq nX0 0 q nX0 mXw w 7 nX$ $ $ 7 7 $ nX$ vX$ 0 nX0 0 0 w q 0 vXvXvX$ bX8 8 bX8 mXw ",
"L.mXe e e e cXcXe e e e e e e e e e e e e e e e e L.e cXcXw cXMXL.mXcXe e e e cXe e e e e e e e e e e e e e e e e L.e cXcXw cXMX",
"MXe w w L.w w w w w w w w w w w w w w w w w w w w w L.mXw e MXw MXe w w L.w w w w w w w w w w w w w w w w w w w w w L.mXw e MXw "
};
