/* XPM */
static char *c5dfc43b8a594758cafa4446a6292042[] = {
/* columns rows colors chars-per-pixel */
"64 64 256 2 ",
"   c black",
".  c #0000A8",
"X  c #00A800",
"o  c #00A8A8",
"O  c #A80000",
"+  c #A800A8",
"@  c #A85400",
"#  c gray66",
"$  c gray33",
"%  c #5454FC",
"&  c #54FC54",
"*  c #54FCFC",
"=  c #FC5454",
"-  c #FC54FC",
";  c #FCFC54",
":  c gray99",
">  c #ECECEC",
",  c gainsboro",
"<  c #D0D0D0",
"1  c #C0C0C0",
"2  c #B4B4B4",
"3  c gray66",
"4  c #989898",
"5  c gray55",
"6  c #7C7C7C",
"7  c gray44",
"8  c #646464",
"9  c gray33",
"0  c #484848",
"q  c gray22",
"w  c #2C2C2C",
"e  c #202020",
"r  c #FC0000",
"t  c #EC0000",
"y  c #E00000",
"u  c #D40000",
"i  c #C80000",
"p  c #BC0000",
"a  c #B00000",
"s  c #A40000",
"d  c #980000",
"f  c #880000",
"g  c #7C0000",
"h  c #700000",
"j  c #640000",
"k  c #580000",
"l  c #4C0000",
"z  c #400000",
"x  c #FCD8D8",
"c  c #FCB8B8",
"v  c #FC9C9C",
"b  c #FC7C7C",
"n  c #FC5C5C",
"m  c #FC4040",
"M  c #FC2020",
"N  c #FC0000",
"B  c #FCA85C",
"V  c #FC9840",
"C  c #FC8820",
"Z  c #FC7800",
"A  c #E46C00",
"S  c #CC6000",
"D  c #B45400",
"F  c #9C4C00",
"G  c #FCFCD8",
"H  c #FCFCB8",
"J  c #FCFC9C",
"K  c #FCFC7C",
"L  c #FCF85C",
"P  c #FCF440",
"I  c #FCF420",
"U  c #FCF400",
"Y  c #E4D800",
"T  c #CCC400",
"R  c #B4AC00",
"E  c #9C9C00",
"W  c #848400",
"Q  c #706C00",
"!  c #585400",
"~  c #404000",
"^  c #D0FC5C",
"/  c #C4FC40",
"(  c #B4FC20",
")  c #A0FC00",
"_  c #90E400",
"`  c #80CC00",
"'  c #74B400",
"]  c #609C00",
"[  c #D8FCD8",
"{  c #BCFCB8",
"}  c #9CFC9C",
"|  c #80FC7C",
" . c #60FC5C",
".. c #40FC40",
"X. c #20FC20",
"o. c #00FC00",
"O. c #00FC00",
"+. c #00EC00",
"@. c #00E000",
"#. c #00D400",
"$. c #04C800",
"%. c #04BC00",
"&. c #04B000",
"*. c #04A400",
"=. c #049800",
"-. c #048800",
";. c #047C00",
":. c #047000",
">. c #046400",
",. c #045800",
"<. c #044C00",
"1. c #044000",
"2. c #D8FCFC",
"3. c #B8FCFC",
"4. c #9CFCFC",
"5. c #7CFCF8",
"6. c #5CFCFC",
"7. c #40FCFC",
"8. c #20FCFC",
"9. c #00FCFC",
"0. c #00E4E4",
"q. c #00CCCC",
"w. c #00B4B4",
"e. c #009C9C",
"r. c #008484",
"t. c #007070",
"y. c #005858",
"u. c #004040",
"i. c #5CBCFC",
"p. c #40B0FC",
"a. c #20A8FC",
"s. c #009CFC",
"d. c #008CE4",
"f. c #007CCC",
"g. c #006CB4",
"h. c #005C9C",
"j. c #D8D8FC",
"k. c #B8BCFC",
"l. c #9C9CFC",
"z. c #7C80FC",
"x. c #5C60FC",
"c. c #4040FC",
"v. c #2024FC",
"b. c #0004FC",
"n. c #0000FC",
"m. c #0000EC",
"M. c #0000E0",
"N. c #0000D4",
"B. c #0000C8",
"V. c #0000BC",
"C. c #0000B0",
"Z. c #0000A4",
"A. c #000098",
"S. c #000088",
"D. c #00007C",
"F. c #000070",
"G. c #000064",
"H. c #000058",
"J. c #00004C",
"K. c #000040",
"L. c #282828",
"P. c #FCE034",
"I. c #FCD424",
"U. c #FCCC18",
"Y. c #FCC008",
"T. c #FCB400",
"R. c #003800",
"E. c #002800",
"W. c #9800E4",
"Q. c #8000CC",
"!. c #7400B4",
"~. c #60009C",
"^. c #500084",
"/. c #440070",
"(. c #340058",
"). c #280040",
"_. c #FCD8FC",
"`. c #FCB8FC",
"'. c #FC9CFC",
"]. c #FC7CFC",
"[. c #FC5CFC",
"{. c #FC40FC",
"}. c #FC20FC",
"|. c #FC00FC",
" X c #E000E4",
".X c #C800CC",
"XX c #B400B4",
"oX c #9C009C",
"OX c #840084",
"+X c #6C0070",
"@X c #580058",
"#X c #400040",
"$X c #FCE8DC",
"%X c #FCE0D0",
"&X c #FCD8C4",
"*X c #FCD4BC",
"=X c #FCCCB0",
"-X c #FCC4A4",
";X c #FCBC9C",
":X c #FCB890",
">X c #FCB080",
",X c #FCA470",
"<X c #FC9C60",
"1X c #F0945C",
"2X c #E88C58",
"3X c #DC8854",
"4X c #D08050",
"5X c #C87C4C",
"6X c #BC7848",
"7X c #B47044",
"8X c #A86840",
"9X c #A0643C",
"0X c #9C6038",
"qX c #905C34",
"wX c #885830",
"eX c #80502C",
"rX c #744C28",
"tX c #6C4824",
"yX c #5C4020",
"uX c #543C1C",
"iX c #483818",
"pX c #403018",
"aX c #382C14",
"sX c #28200C",
"dX c #600064",
"fX c #006464",
"gX c #006060",
"hX c #00001C",
"jX c #00002C",
"kX c #302410",
"lX c #480048",
"zX c #500050",
"xX c #000034",
"cX c gray11",
"vX c #4C4C4C",
"bX c gray36",
"nX c gray25",
"mX c gray19",
"MX c #343434",
"NX c #D8F4F4",
"BX c #B8E8E8",
"VX c #9CDCDC",
"CX c #74C8C8",
"ZX c #48C0C0",
"AX c #20B4B4",
"SX c #20B0B0",
"DX c #00A4A4",
"FX c #009898",
"GX c #008C8C",
"HX c #008484",
"JX c #007C7C",
"KX c #007878",
"LX c #007474",
"PX c #007070",
"IX c #006C6C",
"UX c #980088",
/* pixels */
"mXw mXw mXw mXw mXw w w MXMXw w mXw w mXL.w q L.mXw mXw mXw mXw mXw mXw mXw mXw mXw w w MXMXw w mXw w mXL.w q L.mXw mXw mXw mXw ",
"5 4 4 4 4 # 4 # # 4 4 5 5 5 mXmXq 4 8 7 7 5 6 5 5 5 5 5 5 5 5 5 5 4 4 4 4 4 4 4 4 4 5 5 5 5 mXmXq 2 4 7 6 5 5 4 # 5 5 5 4 4 4 5 ",
"7 7 7 6 6 5 6 5 5 7 7 8 8 vXcXmXL.6 mXnXnXbXbX8 bXbX8 8 7 8 bX8 8 7 6 6 7 6 7 6 7 8 8 8 7 $ cXmXL.# 8 vX$ 8 8 7 6 8 8 7 7 7 7 7 ",
"7 7 7 6 6 6 6 5 6 8 7 bX7 vXw mXMX7 $ vXMX$ bX8 bXbX8 8 8 8 bX8 7 6 6 7 7 6 6 6 7 8 bX7 7 $ w mXMX# 7 vXvX8 bX7 6 8 8 8 7 7 7 7 ",
"7 7 7 6 6 5 5 4 6 bX8 8 7 vXnXL.L.7 q $ q $ $ bXbX8 8 8 8 bXbX8 7 6 6 6 6 6 6 7 7 8 8 7 7 $ nXL.L.# 7 0 vX8 bX7 6 8 8 7 7 7 6 7 ",
"7 7 7 6 6 6 5 5 6 8 bX7 7 vXL.mXmX7 q $ nX0 bXbXbX8 8 8 8 8 bX8 7 6 6 7 6 6 6 7 8 8 7 7 7 $ L.mXmX4 6 0 0 bX8 7 6 8 7 7 7 7 6 7 ",
"7 7 7 6 5 5 5 5 7 7 8 7 7 vXe q mX7 MX$ nXnXbX$ $ 8 8 7 8 8 bXbX7 6 6 7 6 6 5 7 8 8 7 7 7 $ e q mX4 7 vXvX$ bX7 6 7 7 7 7 6 7 7 ",
"7 7 6 6 5 5 5 5 7 7 bX7 7 vXw w w 7 mXbXvX0 $ $ $ 8 8 8 8 8 $ 8 6 6 6 6 6 5 5 7 7 8 8 7 7 $ w w w 5 8 0 bX$ bX7 6 7 7 7 6 6 7 6 ",
"7 7 6 6 6 5 5 5 7 7 8 7 7 vXL.mXw 6 nX0 0 nX$ bX$ bX8 8 8 8 bX7 6 6 6 6 6 5 5 7 6 8 8 7 7 $ L.mXw 4 7 0 bX$ bX8 6 6 6 6 6 6 6 5 ",
"7 7 6 6 6 5 4 5 7 7 bX7 7 vXw mXw 6 nXvXnXq vX8 bXbX8 8 8 bXbX7 7 6 6 6 5 5 5 7 6 8 bX8 7 $ w mXw 4 8 $ $ bX$ bX7 6 6 6 6 6 5 5 ",
"8 7 7 7 6 5 5 6 6 7 bX7 7 0 mXe MX6 q 0 nX$ $ bXbXbX8 8 bXbX8 7 6 6 7 6 5 5 5 7 7 7 bXbX7 $ mXe MX4 8 bX$ bXbX8 7 6 6 6 6 6 4 5 ",
"8 7 6 7 6 5 5 6 6 7 bX8 7 0 w mXmX6 q nXvX$ $ bXbXbX8 8 bX8 8 6 6 6 7 6 5 5 5 7 7 7 8 $ 8 $ w mXw # bX0 vX8 8 8 7 6 6 6 5 5 5 6 ",
"8 7 6 7 6 4 4 5 6 7 8 8 7 0 L.mXq 6 nXq $ vX$ $ 8 bX8 8 bX8 8 6 6 6 7 7 5 5 5 7 7 7 7 bX8 $ L.mXMX4 7 vX0 8 bXbX8 6 5 5 5 6 5 7 ",
"vX$ bX$ bX7 8 7 bXvXvXvX$ vXmXw w 7 w w nXq q 0 0 0 vX0 nX0 $ bXbXbX$ $ 8 7 8 $ $ $ bX0 0 $ mXw w 6 $ MXMX0 0 0 vXbX8 8 bXbX8 bX",
"e e e e e e e e e L.e cXcXw cXMXL.e e e e e e cXe e e e e e e e e e e e e e e e e L.e cXcXw cXMXL.mXe e e e e e e e e e e e e e ",
"w w w w w w w w w w L.mXw e MXw MXe w e e e w w w w w w w w w w w w w w w w w w w w L.mXw e MXw MXe e e e e w w w w w w w w w w ",
"mXw w mXL.w q L.mXw mXw mXw mXw mXw mXw mXw mXw mXw w w MXMXw w mXw w mXL.w q L.mXw mXw mXw mXw mXw mXw mXw mXw mXw w w MXMXw w ",
"k l l l l l z z z z z l k j j k l l l l z l z z l l l l k h h g d s s s f h j k k l l l k k l l z z z z z z z z z z z l z k k k ",
"g f g g g g h h j j j j h f d g h h h g g g h g g g g h g d s p u u y u i d f f f f f g f d d g h h h h j k k l l k j h h f f d ",
"h g f f g g g h j h h j j g f g j k j f f d f d d d f h h g d s i u u u i f h g d O s g f s a s d d d d f h j k j h g f f s d d ",
"O p p a O d d d d d d g g f g j l l k h g f d d f f f h h h h g d s s s a f g g d s O f g f d s s s O s O p s f f g f d O i p a ",
"i i i i p O d d d s a O d s d h l z k j g g g d f f g g h h h g f f f g d f g f f f f f f g g f d a a a p i p O d d d O p i i i ",
"y y y u i a d d s s p i i i p d j l k j g g f d d d g g h g g d d s d f f f g f g h h f f h h g f s O p i i p a O a s s p i u y ",
"y y u u p f g f O p p i i i i a g j h f O a i i i a f g g f d O s s s s d d f f h j k j j k j j g g f s a a a a O O d f d a i u ",
"i i p a f j h f a i p i i i i O f g f p u u y y u i p d d d s p p i p p O d d f g j k j j k k j f g g f s s s s d f g h h f p i ",
"s d f g j l k g d p i p i i a s d d d i u y y y u u i p p p p a p i i i p a d f g h h h j j j g f d f f f d d d f g g h h g d a ",
"d f h h j z l k g s O s a O d s f d d a i u u u i i i i p O s s a p i p a s d d f g h h g f h g g f f f g f g f g j j j h g f s ",
"d d f f h l z l j g g g g g g f g f d O p p p a a p i p O f g f f s a d d d d s d f f f d s d d f g g s s d f f g j k k j f s a ",
"f f f f h k k k h g h j k j j h h g f d s d d f d d d f f g h k k j h h g f f d O O d d d O a s g g f i u i i i d g h j j f d d ",
"g h h g g j j h g g g h k k l j h g g f f g g f d f h j h j k l l k k k j h h h g d f f f d d f f f O i y y u u p s d h h g f g ",
"h k j j h j h h h g g h k k k j j h h g g f f f d f g j k k j j j j j k k k j j h f f d d f f d d d p u y y u i p O s g h j h h ",
"j k k k h h h g g g d d h j k j j h h g h f g d s d g j j j j g h h j j h h h h f d f O s d f f f g s i u u i i p p a d g j h j ",
"k k l k g d f d s s s d f g j k j g g f f f g f s s d g h j j h h h h f f f f d s d s s d f h g f h f a p p p a s O s d f g h j ",
"l l l j f d O a p O s d g h h j h h h g g f s s s s d f g h h h h g g d d a p p p p a d f h h g g h g f f f O a d f f f g f h h ",
"l l k h g f a i p p p s g h j j h g h g f a p a O O s d f f d d d d f d s a i i i i O d f g g g g h g f f g f d f g h g f f h j ",
"h k j g f a p i i i p d g j k k h h h g d p i p p p O O d d O a s s s s O p i i i p s f f f g g g g f s O f f g h j j g d f h j ",
"f h g f d a p p i i a f g j j j h g f d O p i i i i p O d d s O s d d d s p u i i i p s d f g h h g d s s d d g h h g f d d f g ",
"f f d d O O p i i i a f g g g f d f d O p p i i p p p a a O s a a d g f d a i i i i p O d f g h h g d a O d f h j h h f d f f f ",
"f d s s a O a i i i s g g f d d s d a p i i i p a a s s s O s p p s g h g s a i i i i i p s g j j h f s a d g h k k k g g h g g ",
"g f s O O s d a i O g h g g d d s a p p p a s d d f d f f d d a p O f h h f s i i u i i i p d h j j h d d d g j k l k h g g f d ",
"f d O s s s f s a d f g g h d s a a a O O s g h g h g g f f d s s O d g j h f p i i i i i a d g h j j g f d f g j k k h f f d s ",
"a d d d d f f s p s s f f d O s a O d d f g h h k k k h g g f f d d f h j j h g f O s O s d f g f h k j h d s d g h h h g f d s ",
"p f g f f f f O p p O s s d s d d d g g g h h j k j j h h g g h h g h g h h j k h h h h g g j k j j l l j d p a d f g g f s p i ",
"p f f d d f f d d d f d s s s d f d f g h j h j j j g f h g g h h h h h h j j h g h h k j j l z l k l l h O p p p d f f d O i i ",
"O f f f d d f h h h j h f d s f f f g h j j j j k j h g g d f f g g f g h j h g d f f j l k k l k k k k j f O a s f d d s O p p ",
"h k l l k j k l l z z z k k h k l l z z z z z z z l l l k j j j k k l l z z z l k j j l z z z z z z l l l k k j k k k j j j j h ",
"e e e e e e e e e L.e cXcXw cXMXL.mXcXe e e cXcXe e e e e e e e e e e e e e e e e L.e cXcXw cXMXL.mXcXe e e cXcXe e e e e e e e ",
"w w w w w w w w w w L.mXw e MXw MXe w w L.w w w w w w w w w w w w w w w w w w w w w L.mXw e MXw MXe w w L.w w w w w w w w w w w ",
"mXw w mXL.w q L.mXw mXw mXw mXw mXw mXw mXw mXw mXw w w MXMXw w mXw w mXL.w q L.mXw mXw mXw mXw mXw mXw mXw mXw mXw w w MXMXw w ",
"q 2 # 4 # 4 5 4 4 4 # # 4 4 5 6 6 6 7 7 5 5 8 7 6 5 5 5 5 5 mXmXq # 5 4 4 # 2 # 4 5 4 4 5 5 5 6 6 6 7 7 5 5 5 5 4 # 4 # # 4 mXmX",
"L.# 5 6 5 6 8 7 7 6 5 5 6 6 8 $ bX$ nX0 8 bX0 q vXbX8 bX8 vXcXmXL.5 8 7 6 5 4 5 6 7 7 7 8 8 8 0 nX$ nXvXbX8 8 7 6 6 6 6 6 8 cXmX",
"q # 6 6 5 6 bX7 7 6 6 5 6 6 8 bX8 bXnXvXbXbXvXnX$ 8 8 bX8 vXw mXMX5 7 7 6 5 5 5 7 8 6 7 8 7 bXvX0 $ nXvXbX8 8 7 6 6 7 6 6 8 w mX",
"mX# 6 7 5 7 bX7 7 6 6 5 6 7 8 8 8 $ nXvXbXbXvX0 $ 8 8 bX8 0 nXL.L.6 bX7 6 5 5 6 7 8 6 6 8 7 bX$ vX$ nX$ bX8 bX8 6 6 7 5 6 bXnXL.",
"q # 6 6 6 7 bX7 6 6 6 5 6 7 8 8 8 vXnXvXbXbX0 q vX8 8 bX8 vXL.mXmX6 bX7 6 5 5 6 8 8 6 6 7 8 bX$ 0 nXnX$ bXbX8 8 6 6 7 5 6 bXL.mX",
"MX# 6 6 6 7 bX7 6 6 6 4 6 7 8 8 8 0 q vXbX8 0 w vX8 8 bX8 vXe q mX6 bX7 6 6 5 6 7 8 7 8 7 8 $ vXvX0 q vX8 bX8 8 6 6 7 5 6 bXe q ",
"w # 6 6 6 7 8 7 7 6 6 4 7 7 8 8 bXvX0 $ 8 8 0 MXnX8 8 bX8 vXw w w 6 bX7 6 6 4 5 6 8 8 8 8 bXbXvX$ vXmX0 bX8 8 8 6 5 6 5 6 bXw w ",
"w # 6 6 6 7 bX7 7 6 6 4 7 7 8 8 $ vXvX$ 8 8 nXmX0 bX8 bX8 0 L.mXw 6 bX7 6 6 4 5 6 8 bX8 7 bX8 vXbX$ mX$ $ $ 8 8 7 6 5 4 6 8 L.mX",
"w # 6 6 6 8 bX7 7 6 5 5 7 7 8 $ vX0 vXbXbX8 nXmX0 $ bXbX8 0 w mXw 6 bX6 6 6 4 4 6 8 8 7 7 bX8 vXbX8 MX$ $ bX8 8 7 7 7 5 6 8 w mX",
"MX# 6 6 5 8 bX7 7 6 6 5 7 6 bX0 bX$ vXbXbX8 0 MXvX$ bXbX8 0 mXe MX5 bX7 6 6 4 4 6 $ 8 7 8 bXbX$ bX8 q vXvXbX8 8 7 6 6 5 6 8 mXe ",
"w # 6 6 5 bX8 7 7 6 5 4 7 6 $ $ 8 $ $ bXbX8 0 nXbXbXbX$ bXvXw mXmX6 $ 7 7 6 5 4 7 bX7 8 8 8 bX$ bX8 MXnX$ 8 8 8 7 7 6 5 6 8 w mX",
"MX# 6 5 5 8 8 7 7 6 5 5 7 6 $ $ 8 $ $ bXbX8 0 0 bXbXbX$ bX0 L.mXq 6 $ 7 7 7 5 4 8 $ 7 8 8 8 $ bXbXbXMX0 bX8 8 7 7 6 5 5 6 8 L.mX",
"w 5 bX8 bX0 vX$ $ 8 8 bX$ bXnXnXvXnX0 0 0 0 nXq nX0 0 q nX0 mXw w 7 nX$ $ $ 7 7 $ nX$ vX$ 0 nX0 0 0 w q 0 vXvXvX$ bX8 8 bX8 mXw ",
"L.mXe e e e cXcXe e e e e e e e e e e e e e e e e L.e cXcXw cXMXL.mXcXe e e e cXe e e e e e e e e e e e e e e e e L.e cXcXw cXMX",
"MXe w w L.w w w w w w w w w w w w w w w w w w w w w L.mXw e MXw MXe w w L.w w w w w w w w w w w w w w w w w w w w w L.mXw e MXw "
};
