/* XPM */
static char *_542718422413[] = {
/* columns rows colors chars-per-pixel */
"64 64 256 2 ",
"   c black",
".  c #0000A8",
"X  c #00A800",
"o  c #00A8A8",
"O  c #A80000",
"+  c #A800A8",
"@  c #A85400",
"#  c gray66",
"$  c gray33",
"%  c #5454FC",
"&  c #54FC54",
"*  c #54FCFC",
"=  c #FC5454",
"-  c #FC54FC",
";  c #FCFC54",
":  c gray99",
">  c #ECECEC",
",  c gainsboro",
"<  c #D0D0D0",
"1  c #C0C0C0",
"2  c #B4B4B4",
"3  c gray66",
"4  c #989898",
"5  c gray55",
"6  c #7C7C7C",
"7  c gray44",
"8  c #646464",
"9  c gray33",
"0  c #484848",
"q  c gray22",
"w  c #2C2C2C",
"e  c #202020",
"r  c #FC0000",
"t  c #EC0000",
"y  c #E00000",
"u  c #D40000",
"i  c #C80000",
"p  c #BC0000",
"a  c #B00000",
"s  c #A40000",
"d  c #980000",
"f  c #880000",
"g  c #7C0000",
"h  c #700000",
"j  c #640000",
"k  c #580000",
"l  c #4C0000",
"z  c #400000",
"x  c #FCD8D8",
"c  c #FCB8B8",
"v  c #FC9C9C",
"b  c #FC7C7C",
"n  c #FC5C5C",
"m  c #FC4040",
"M  c #FC2020",
"N  c #FC0000",
"B  c #FCA85C",
"V  c #FC9840",
"C  c #FC8820",
"Z  c #FC7800",
"A  c #E46C00",
"S  c #CC6000",
"D  c #B45400",
"F  c #9C4C00",
"G  c #FCFCD8",
"H  c #FCFCB8",
"J  c #FCFC9C",
"K  c #FCFC7C",
"L  c #FCF85C",
"P  c #FCF440",
"I  c #FCF420",
"U  c #FCF400",
"Y  c #E4D800",
"T  c #CCC400",
"R  c #B4AC00",
"E  c #9C9C00",
"W  c #848400",
"Q  c #706C00",
"!  c #585400",
"~  c #404000",
"^  c #D0FC5C",
"/  c #C4FC40",
"(  c #B4FC20",
")  c #A0FC00",
"_  c #90E400",
"`  c #80CC00",
"'  c #74B400",
"]  c #609C00",
"[  c #D8FCD8",
"{  c #BCFCB8",
"}  c #9CFC9C",
"|  c #80FC7C",
" . c #60FC5C",
".. c #40FC40",
"X. c #20FC20",
"o. c #00FC00",
"O. c #00FC00",
"+. c #00EC00",
"@. c #00E000",
"#. c #00D400",
"$. c #04C800",
"%. c #04BC00",
"&. c #04B000",
"*. c #04A400",
"=. c #049800",
"-. c #048800",
";. c #047C00",
":. c #047000",
">. c #046400",
",. c #045800",
"<. c #044C00",
"1. c #044000",
"2. c #D8FCFC",
"3. c #B8FCFC",
"4. c #9CFCFC",
"5. c #7CFCF8",
"6. c #5CFCFC",
"7. c #40FCFC",
"8. c #20FCFC",
"9. c #00FCFC",
"0. c #00E4E4",
"q. c #00CCCC",
"w. c #00B4B4",
"e. c #009C9C",
"r. c #008484",
"t. c #007070",
"y. c #005858",
"u. c #004040",
"i. c #5CBCFC",
"p. c #40B0FC",
"a. c #20A8FC",
"s. c #009CFC",
"d. c #008CE4",
"f. c #007CCC",
"g. c #006CB4",
"h. c #005C9C",
"j. c #D8D8FC",
"k. c #B8BCFC",
"l. c #9C9CFC",
"z. c #7C80FC",
"x. c #5C60FC",
"c. c #4040FC",
"v. c #2024FC",
"b. c #0004FC",
"n. c #0000FC",
"m. c #0000EC",
"M. c #0000E0",
"N. c #0000D4",
"B. c #0000C8",
"V. c #0000BC",
"C. c #0000B0",
"Z. c #0000A4",
"A. c #000098",
"S. c #000088",
"D. c #00007C",
"F. c #000070",
"G. c #000064",
"H. c #000058",
"J. c #00004C",
"K. c #000040",
"L. c #282828",
"P. c #FCE034",
"I. c #FCD424",
"U. c #FCCC18",
"Y. c #FCC008",
"T. c #FCB400",
"R. c #003800",
"E. c #002800",
"W. c #9800E4",
"Q. c #8000CC",
"!. c #7400B4",
"~. c #60009C",
"^. c #500084",
"/. c #440070",
"(. c #340058",
"). c #280040",
"_. c #FCD8FC",
"`. c #FCB8FC",
"'. c #FC9CFC",
"]. c #FC7CFC",
"[. c #FC5CFC",
"{. c #FC40FC",
"}. c #FC20FC",
"|. c #FC00FC",
" X c #E000E4",
".X c #C800CC",
"XX c #B400B4",
"oX c #9C009C",
"OX c #840084",
"+X c #6C0070",
"@X c #580058",
"#X c #400040",
"$X c #FCE8DC",
"%X c #FCE0D0",
"&X c #FCD8C4",
"*X c #FCD4BC",
"=X c #FCCCB0",
"-X c #FCC4A4",
";X c #FCBC9C",
":X c #FCB890",
">X c #FCB080",
",X c #FCA470",
"<X c #FC9C60",
"1X c #F0945C",
"2X c #E88C58",
"3X c #DC8854",
"4X c #D08050",
"5X c #C87C4C",
"6X c #BC7848",
"7X c #B47044",
"8X c #A86840",
"9X c #A0643C",
"0X c #9C6038",
"qX c #905C34",
"wX c #885830",
"eX c #80502C",
"rX c #744C28",
"tX c #6C4824",
"yX c #5C4020",
"uX c #543C1C",
"iX c #483818",
"pX c #403018",
"aX c #382C14",
"sX c #28200C",
"dX c #600064",
"fX c #006464",
"gX c #006060",
"hX c #00001C",
"jX c #00002C",
"kX c #302410",
"lX c #480048",
"zX c #500050",
"xX c #000034",
"cX c gray11",
"vX c #4C4C4C",
"bX c gray36",
"nX c gray25",
"mX c gray19",
"MX c #343434",
"NX c #D8F4F4",
"BX c #B8E8E8",
"VX c #9CDCDC",
"CX c #74C8C8",
"ZX c #48C0C0",
"AX c #20B4B4",
"SX c #20B0B0",
"DX c #00A4A4",
"FX c #009898",
"GX c #008C8C",
"HX c #008484",
"JX c #007C7C",
"KX c #007878",
"LX c #007474",
"PX c #007070",
"IX c #006C6C",
"UX c #980088",
/* pixels */
"5 # 4 6 7 5 6 6 bX8 7 7 6 5 6 6 6 6 6 7 6 7 6 4 6 $ 8 bX7 5 7   4 5 6 8 8 bX8 7 7 8 8 8 8 7 7 8 7 6 6 6 7 6 5 6 7 7 7 7 6 7 7   ",
"6 8 vX$ 0 vXbXvXMX$ nX0 0 $ 0 vX$ vX0 0 0 7 8 8 8 L.w L.vX5 8   # # 5 0 w MXw mXmXq MXMXmXmX0 $ 0 nX0 nX0 bX8 8 8 bX$ vXvX$ q   ",
"4 $ 0 $ nXbX7 8 bX8 0 nX0 vXvX0 vX$ 0 $ 7 $ nX8 7 cXL.L.q bXnX  5 bXnXw MXq w mXmXmXMXMXw w nXvX8 $ $ nX$ nXnX$ 7 6 7 8 bXbXnX  ",
"4 7 0 $ vX$ bX8 vX$ 7 vX$ $ 0 vX0 0 nXnXq nXq vX$ 8 L.L.mXnXMX  6 MXw MXmXw w nXnXw w w w nXnXmX0 7 $ $ 0 0 $ 8 bX$ bX8 7 8 q   ",
"5 7 6 $ $ Y : U U T V vXmX0 0 7 8 $ $ MXw q q 0 0 8 0 mXmXnXq   6 q w q MXq mXq q mXw w mXvX0 L.cXMXbXq vXV T U U : Y nX$ 8 nX  ",
"7 0 8 U : U U U U Y Y V e mXE U U U U U U U U U U U U U U U U U U U U U U U U U U U U U U U U U U E mXe V Y Y U U U U : U nXq   ",
"7 0 mXZ 8 E E R T E C r F e mXF F F F F F F F F F F S A F A F F F D S F S F F F F F F F F F F F F mXe F r C E T R E E 7 Z w mX  ",
"7 q q L.mXL.e cXL.nX0 nXe t ~ Q f cXcXe L.e L.L.L.L.e e L.L.cX  mXcXcXcXcXcXcXcXcXcXcXcXcXe L.f Q ~ p a cXe e cXL.L.L.L.L.mXw   ",
"8 L.L.w $ $ $ 7 7 8 8 4 bXr p u i p a d f f q nXnXq w MX0 0 w   bXMXw w w L.e e w w w MXa u r r u O p a L.L.MXMXq nX0 vX$ nXw   ",
"7 MXL.8 # 8 6 # 7 8 bXq MXr t y u u i p a O O a i y r : 8 > nXq MXmX5   7 d f d O p u t r r r r y i p a L.q $ $ $ bX$ $ 0 nXMX  ",
"4 6 nXbXbXnXnX7 7 6 $ e e r t y u u i p a O O a i y r : 8 > nXq MXmX5   7 d f d O p u t r r r r y i p a e q 0 0 0 $ $ vXmXMXq   ",
"5 w L.nX0 0 nXnXnXMX0 0 L.r t y u u i p a O O a i y r : 8 > nXq MXmX5   7 d f d O p u t r r r r y i p a e w nX0 nXq 0 vXmX0 $   ",
"bXq nXnX0 nXnXq q q nX7 8 r t y u u i p a O O a i y r : 8 > nXq MXmX5   7 d f d O p u t r r r r y i p a e w nXnX0 q 0 0 bXbX8   ",
"7 bX$ nXq q mXL.w q q q 8 r t y u u i p a O O a i y r : 8 > nXq MXmX5   7 d f d O p u t r r r r y i p a e nXvX0 0 vXvXbXbXvX$   ",
"8 0 bX8 0 w L.L.L.mXq w nXr t y u u i p a O O a i y r : 8 > nXq MXmX5   7 d f d O p u t r r r r y i p a cXq vX0 0 vX$ 7 bX$ MX  ",
"8 $ 7 8 0 q w L.w q q w q r t y u u i p a O O a i y r : 8 > nXq MXmX5   7 d f d O p u t r r r r y i p a L.MXnX0 0 0 vX0 bXnXnX  ",
"bXw mXvXbXq q MXmXmXMXmX0 r t y u u i p a O O a i y r : 8 > nXq MXmX5   7 d f d O p u t r r r r y i p a w bXvXvXvXvX0 $ nXw e   ",
"8 w L.vXbXnXmXnXnXnX0 mXnXr t y u u i p a O O a i y r : 8 > 4 # 4 $ 5   7 d f d O p u t r r r r y i p a e nX0 vXvXvX0 vXmXL.e   ",
"8 w L.mX0 0 8 nXmXMXcXcXcXr t y u u i p a O O a i 4 < 1 8 > > > , < 4   6 6 vXd O p u t r r r r y i p a cXq bX7 bXnX0 0 w L.e   ",
"bXL.w mX7 $ 0 7 $ L.cXL.w r t y u u i p a O O a 2 6 vX$ 6 : > > , < 4       $ 6 vXp u t r r r r y i p a cXq $ $ $ 0 nX0 w w e   ",
"bXMX0 0 7 vXq 0 nXq nXw mXr t y u u i p a O O 4 vXq # < 6 8 $ vXmXe e   $ 7     7 7 u t r r r r y i p a cXq 0 0 vX$ vX0 L.e cX  ",
"6 nXnXq bX$ q q q $ 6 7 8 r t y u u i p a O 5 q q , 7 $ 4 : > > , < 2 7     8 $   6 7 t r r r r y i p a cXw nXmXnX0 0 $ 8 7 $   ",
"6 nXbX$ vX$ q q mXmXvXnXnXr t y u u i p a 7 $ e 2 $ vX: 5 $ q vX, < 2 # 4 $   vX$   2 t r r r r y i p a mX$ w w w q nX$ $ $ 0   ",
"6 0 7 8 vXvX0 bX8 q L.L.mXr t y u u i p a 6   2 $ $ : 5 $ vXq vX8 < 2 # 4 5 6   vXvX  4 r r r r y i p a q bXbXL.w w 0 $ vX$ nX  ",
"5 7 6 0 bX$ vXq 0 q MXw nXr t y u u i p 5 e 7 $ $ , 5 $ $ vXq $ , < 2 mX  mX6 7   $   2 r r r r y i p a e q bX8 vXq nX$ 0 bX0   ",
"5 7 8 0 8 L.L.MXq q w L.L.r t y u u i p 7   4 e 1 1 $ $ $ vXvX1 , < q       mX7 7   $ vXr r r r y i p a cXw vXbX7 5 6 8 6 7 q   ",
"4 8 0 7 nXL.mXnXq nXMXnXMX: : , 1 # 5 5 vXvXq 7 1 # $ $ $ vX8 1 , q e         mX6 q $   > > > , 1 # 5 7 cXMXvX0 nXq nX$ 7 $ nX  ",
"6 $ nXbX$ nXq nXnXq q q 0 6 8 vXq mXe     7   2 1 , 6 $ $ vXq $ $ e e           mX7 mX  vX8 8 $ q e     cXMX0 0 nXw MXvX$ 8 L.  ",
"7 vXw $ bX0 nXnXnXnX0 0 vX: : , 1 # 5 5 6 7   1 1 , : 6 $ vXq q mXe e   mX        6   2 > > > , 1 # 5 7 cXnX$ vX0 w MX$ $ 8 L.  ",
"6 L.nX0 q nXq nX0 vX$ 8 8 vX0 nXnXnXq $ 6 7   # q 1 : : 5 vXq q mXe e 8 4 mX    7 6   2 5 vXvXvXnXq q MXcXq bXbXbXnXnXvX$ 7 w   ",
"6 w q 0 MXq q nX0 vX$ bX7 vX0 nXnXnXq 8 6 7   7 mXq < : < vXq q mXe mX8 4 5 mX$ 6 6   2 5 vXvXvXnXq q MXcXq $ $ vXq nXbX7 7 nX  ",
"6 nXw L.L.w w mXMXq 0 0 vXvX0 nXnXnXq vX6 7   $ mXq vX5 $ vXq q mXe e   8 5 6 7 6 6   2 5 vXvXvXnXq q MXcXw q nXq nX0 vXvX0 vX  ",
"                          : : , 1 # 5 5 6 7   6 mXq vX$ $ vXq q mXe e     8 6 7 6 6   1 > > > , 1 # 5 7                         ",
"5 7 8 7 6 6 6 6 6 6 6 7 7 6 8 vXq mXe     8 e 4 $ q vX$ $ vXq > , e e       8 7 6 vXvX  vX8 8 $ q e     q 8 6 5 5 6 6 6 6 6 7   ",
"6 mX$ $ $ 5 $ vX$ $ nXnXq : : , 1 # 5 5 8 e 8 vX1 6 vX$ $ vX1 > , < e         7 6   7   > > > , 1 # 5 7 mXvX8 $ $ $ $ $ bX0 nX  ",
"bX$ $ 0 0 7 $ $ vXnX0 0 q r t y u u i p 5   4 mX4 , 5 $ vX, > > , 8 mX      q 7 q mXq 6 r r r r y i p a e nX$ bX$ $ bX$ $ 7 $   ",
"6 0 mXw $ 8 7 0 q q 0 0 vXr t y u u i p $ $ q 4 mX, : : : : > > 8 mXe       6 $   7   2 r r r r y i p a cXnXnXvXvX$ $ vXvXvXw   ",
"8 e mXnX$ $ $ 0 nXq nX0 vXr t y u u i p a 6   7 4 mX< : : : > > 2 e e     6 q   7   $ 6 r r r r y i p a cXw q 0 q 0 $ 0 $ $ e   ",
"bXw nXvXbXvXvX0 nXnX0 0 vXr t y u u i p a $ 5   7 4 vX4 : : > > , # e   $     7   mX2 t r r r r y i p a cXL.w w w nXvX$ vX$ L.  ",
"8 nXnX0 7 $ 0 nXnX0 nX0 $ r t y u u i p a O 8 5 mX7 : 7 8 7 5 4 4 8 q e   vX8   mX# u t r r r r y i p a e e L.L.MXvXvX$ bX$ e   ",
"7 nX0 8 6 bX0 nXnX0 vXvXvXr t y u u i p a O O 7 # mXvX# , 1 5 6 6 5 # # 7     $ 4 p u t r r r r y i p a w e L.w 0 $ $ 8 $ MXw   ",
"7 nX$ 7 8 $ bXvXq nXnX0 0 r t y u u i p a O O a 7 , 6 $ 8 : > > < 2 2 e   $ 6 8 O p u t r r r r y i p a w e L.mX0 $ 8 vXw w MX  ",
"7 $ $ $ 0 0 bX8 $ vXvX0 nXr t y u u i p a O O a i y 4 > 8 > , > < 2 2 e 6 vXf d O p u t r r r r y i p a L.L.L.q nXvX8 cXL.q w   ",
"7 0 vX0 0 0 0 $ 0 $ vXnXnXr t y u u i p a O O a i y r : 8 > 0 nXq mX2 e 6 d f d O p u t r r r r y i p a L.0 nX0 0 0 MXw MXw w   ",
"7 q nX0 vX0 nXnXq 0 q MXnXr t y u u i p a O O a i y r : 8 > 0 nXq mX2 e 6 d f d O p u t r r r r y i p a cXL.q 8 7 8 0 MXnXnXw   ",
"7 nX0 nXnXnXnXnXnX0 $ nXmXr t y u u i p a O O a i y r : 8 > 0 nXq mX2 e 6 d f d O p u t r r r r y i p a cXe w mXq 0 $ bX$ nXMX  ",
"6 nXMXL.L.mXnXq q 0 $ mXw r t y u u i p a O O a i y r : 8 : 0 nXq mX2 e 6 d f d O p u t r r r r y i p a cXe w q nXnXnX0 nXq q   ",
"7 0 nXw L.mXq q 0 nXnXL.w r t y u u i p a O O a i y r : 8 : 0 nXq mX2 e 6 d f d O p u t r r r r y i p a cXw w q 0 MXL.nXnXq q   ",
"5 0 0 MXMXq q nX0 nX0 mXe r t y u u i p a O O a i y r : $ : 0 nXq mX2 e 6 d f d O p u t r r r r y i p a e MXq w vXbX$ $ 0 0 q   ",
"7 0 7 $ nX0 vXvX0 q nXq 0 r t y u u i p a O O a i y r : $ : 0 nXq mX2 e 6 d f d O p u t r r r r y i p a cXq 0 nXnXbX7 $ bXbXnX  ",
"8 mX0 0 nXnXvX0 0 0 nXnX0 r t y u u i p a O O a i y r : $ : 0 nXq mX2 e 6 d f d O p u t r r r r y i p a e MXnXvXvX0 0 q q 8 7   ",
"8 MX0 nXnX0 vXnXq nXvX$ $ r t y u u i p a O O a i y r : $ : 0 nXq mX2 e 6 d f d O p u t r r r r y i p a e q 0 vX0 $ bX8 5 4 7   ",
"7 mXMXbX0 nX$ $ $ $ $ vXvXr t y u u i p a O O a i y r : vX: 0 nXq mX2 e 6 d f d O p u t r r r r y i p a cXq nXnX6 2 1 1 2 bXq   ",
"5 vXnXnX0 vX$ 0 0 bXvX0 bXr t y u u i p a O O a i y r : vX: 0 nXq mX2 e 6 d f d O p u t r r r r y i p a e MXq 8 4 2 2 5 8 0 nX  ",
"6 8 $ MXvX$ $ bX0 0 bX8 0 r t y u u i p a O O a i y r : vX: 0 nXq mX2 e 6 d f d O p u t r r r r y i p a e $ 6 $ vXbX$ 0 vX$ q   ",
"6 0 w q 0 nXL.q MXMXbXbXe r t y u u i p a O O a i y r : vX: 0 nXq mX2 e 6 f f d O p u t r r r r y i p a q bX8 $ 0 0 0 $ 0 0 q   ",
"6 nXMXq 8 nXq mXw MXvX8 nXq w cXe e L.cXcXe e e L.d d #   # w w w w 7   8 e e k h O p u y t t y y p f   cXmX0 mXnXnXw q 0 vXMX  ",
"6 $ w w $ $ $ nXL.w vX8 8 0 nXnXw q $ 8 vXq nXnXnXMXw e cXe cX  mXe L.e e e e e L.  cXcXcXcXcXcXe cXcXw nX$ cXL.w mXq MXnX0 mX  ",
"7 $ 0 nXL.8 $ q L.mXnX$ $ vX$ $ q q q $ $ bX$ $ 0 nXnXq MXq w   bXq 0 0 q q MXvX$ q e e e e e w q nXq mX$ mXe L.w mXw mXq 0 q   ",
"6 $ 0 $ $ bXq mXL.w MX$ $ $ 0 $ $ q mXq w q 0 $ nXnXq 0 0 nXMX  7 $ bX$ nXvX$ vXvX$ $ q nXvXnX0 vX$ $ $ bXnXbXq vXvXq q q nXnX  ",
"8 vX8 0 $ q q q mXL.0 vX$ 0 e nX$ 0 mXnXMXw L.q $ q MX0 vX0 q   6 8 bX$ vX$ $ nX8 7 bX0 MXMXL.MX0 8 5 6 8 8 0 vXbXvXnXnXL.L.L.  ",
"bX8 6 5 5 bX0 5 6 q q nX0 0 mXvXbXbX$ 0 $ 0 bXMX0 vX0 vXbXbXmX  7 0 nXvX0 mXmXL.nXnXq mXw L.MXnXnXbX8 vXnX8 6 8 8 q nXvXnXmXcX  ",
"4 8 $ 5 4 5 5 6 L.L.w q q 0 vXbXbXvX$ vXnXnX0 w mXbXbXq nXq e   bXw q nXw mXw q q mXq nXq w mXq 0 8 bXnX0 $ vXq 0 vXvX0 MXmXw   ",
"# 6 7 $ 0 0 q w w e e w MXq 0 0 q nXq q MXMXq w L.nXnXnX0 0 q   8 MXw e L.L.w w L.e e w w w w L.q nXw L.L.vXvXw nXq MXMXw w q   "
};
