/* XPM */
static char *_0b6b4e2862d4872bb3bf48982a8dde7[] = {
/* columns rows colors chars-per-pixel */
"64 64 256 2 ",
"   c black",
".  c #0000A8",
"X  c #00A800",
"o  c #00A8A8",
"O  c #A80000",
"+  c #A800A8",
"@  c #A85400",
"#  c gray66",
"$  c gray33",
"%  c #5454FC",
"&  c #54FC54",
"*  c #54FCFC",
"=  c #FC5454",
"-  c #FC54FC",
";  c #FCFC54",
":  c gray99",
">  c #ECECEC",
",  c gainsboro",
"<  c #D0D0D0",
"1  c #C0C0C0",
"2  c #B4B4B4",
"3  c gray66",
"4  c #989898",
"5  c gray55",
"6  c #7C7C7C",
"7  c gray44",
"8  c #646464",
"9  c gray33",
"0  c #484848",
"q  c gray22",
"w  c #2C2C2C",
"e  c #202020",
"r  c #FC0000",
"t  c #EC0000",
"y  c #E00000",
"u  c #D40000",
"i  c #C80000",
"p  c #BC0000",
"a  c #B00000",
"s  c #A40000",
"d  c #980000",
"f  c #880000",
"g  c #7C0000",
"h  c #700000",
"j  c #640000",
"k  c #580000",
"l  c #4C0000",
"z  c #400000",
"x  c #FCD8D8",
"c  c #FCB8B8",
"v  c #FC9C9C",
"b  c #FC7C7C",
"n  c #FC5C5C",
"m  c #FC4040",
"M  c #FC2020",
"N  c #FC0000",
"B  c #FCA85C",
"V  c #FC9840",
"C  c #FC8820",
"Z  c #FC7800",
"A  c #E46C00",
"S  c #CC6000",
"D  c #B45400",
"F  c #9C4C00",
"G  c #FCFCD8",
"H  c #FCFCB8",
"J  c #FCFC9C",
"K  c #FCFC7C",
"L  c #FCF85C",
"P  c #FCF440",
"I  c #FCF420",
"U  c #FCF400",
"Y  c #E4D800",
"T  c #CCC400",
"R  c #B4AC00",
"E  c #9C9C00",
"W  c #848400",
"Q  c #706C00",
"!  c #585400",
"~  c #404000",
"^  c #D0FC5C",
"/  c #C4FC40",
"(  c #B4FC20",
")  c #A0FC00",
"_  c #90E400",
"`  c #80CC00",
"'  c #74B400",
"]  c #609C00",
"[  c #D8FCD8",
"{  c #BCFCB8",
"}  c #9CFC9C",
"|  c #80FC7C",
" . c #60FC5C",
".. c #40FC40",
"X. c #20FC20",
"o. c #00FC00",
"O. c #00FC00",
"+. c #00EC00",
"@. c #00E000",
"#. c #00D400",
"$. c #04C800",
"%. c #04BC00",
"&. c #04B000",
"*. c #04A400",
"=. c #049800",
"-. c #048800",
";. c #047C00",
":. c #047000",
">. c #046400",
",. c #045800",
"<. c #044C00",
"1. c #044000",
"2. c #D8FCFC",
"3. c #B8FCFC",
"4. c #9CFCFC",
"5. c #7CFCF8",
"6. c #5CFCFC",
"7. c #40FCFC",
"8. c #20FCFC",
"9. c #00FCFC",
"0. c #00E4E4",
"q. c #00CCCC",
"w. c #00B4B4",
"e. c #009C9C",
"r. c #008484",
"t. c #007070",
"y. c #005858",
"u. c #004040",
"i. c #5CBCFC",
"p. c #40B0FC",
"a. c #20A8FC",
"s. c #009CFC",
"d. c #008CE4",
"f. c #007CCC",
"g. c #006CB4",
"h. c #005C9C",
"j. c #D8D8FC",
"k. c #B8BCFC",
"l. c #9C9CFC",
"z. c #7C80FC",
"x. c #5C60FC",
"c. c #4040FC",
"v. c #2024FC",
"b. c #0004FC",
"n. c #0000FC",
"m. c #0000EC",
"M. c #0000E0",
"N. c #0000D4",
"B. c #0000C8",
"V. c #0000BC",
"C. c #0000B0",
"Z. c #0000A4",
"A. c #000098",
"S. c #000088",
"D. c #00007C",
"F. c #000070",
"G. c #000064",
"H. c #000058",
"J. c #00004C",
"K. c #000040",
"L. c #282828",
"P. c #FCE034",
"I. c #FCD424",
"U. c #FCCC18",
"Y. c #FCC008",
"T. c #FCB400",
"R. c #003800",
"E. c #002800",
"W. c #9800E4",
"Q. c #8000CC",
"!. c #7400B4",
"~. c #60009C",
"^. c #500084",
"/. c #440070",
"(. c #340058",
"). c #280040",
"_. c #FCD8FC",
"`. c #FCB8FC",
"'. c #FC9CFC",
"]. c #FC7CFC",
"[. c #FC5CFC",
"{. c #FC40FC",
"}. c #FC20FC",
"|. c #FC00FC",
" X c #E000E4",
".X c #C800CC",
"XX c #B400B4",
"oX c #9C009C",
"OX c #840084",
"+X c #6C0070",
"@X c #580058",
"#X c #400040",
"$X c #FCE8DC",
"%X c #FCE0D0",
"&X c #FCD8C4",
"*X c #FCD4BC",
"=X c #FCCCB0",
"-X c #FCC4A4",
";X c #FCBC9C",
":X c #FCB890",
">X c #FCB080",
",X c #FCA470",
"<X c #FC9C60",
"1X c #F0945C",
"2X c #E88C58",
"3X c #DC8854",
"4X c #D08050",
"5X c #C87C4C",
"6X c #BC7848",
"7X c #B47044",
"8X c #A86840",
"9X c #A0643C",
"0X c #9C6038",
"qX c #905C34",
"wX c #885830",
"eX c #80502C",
"rX c #744C28",
"tX c #6C4824",
"yX c #5C4020",
"uX c #543C1C",
"iX c #483818",
"pX c #403018",
"aX c #382C14",
"sX c #28200C",
"dX c #600064",
"fX c #006464",
"gX c #006060",
"hX c #00001C",
"jX c #00002C",
"kX c #302410",
"lX c #480048",
"zX c #500050",
"xX c #000034",
"cX c gray11",
"vX c #4C4C4C",
"bX c gray36",
"nX c gray25",
"mX c gray19",
"MX c #343434",
"NX c #D8F4F4",
"BX c #B8E8E8",
"VX c #9CDCDC",
"CX c #74C8C8",
"ZX c #48C0C0",
"AX c #20B4B4",
"SX c #20B0B0",
"DX c #00A4A4",
"FX c #009898",
"GX c #008C8C",
"HX c #008484",
"JX c #007C7C",
"KX c #007878",
"LX c #007474",
"PX c #007070",
"IX c #006C6C",
"UX c #980088",
/* pixels */
"R.E.R.E.E.E.E.E.E.E.E.  R.w w R.1.R.e R.1.1.R.e 1.1.q w nXw nXnXR.R.R.R.R.R.R.R.E.E.E.E.R.R.nX1.q MXL.R.R.w E.R.e L.R.L.R.e R.E.",
"E.1.R.R.E.E.L.R.E.E.E.R.R.MXL.1.1.R.e R.R.E.cXE.E.R.R.mXmXMX0 vX1.R.R.e R.R.R.E.  sX1.E.E.R.w mXnXvXmXE.R.e E.R.E.E.E.L.cXw L.E.",
"E.1.R.1.E.E.mXcXE.E.E.E.1.cXE.1.R.L.E.R.R.R.E.E.1.E.cXE.MXmXL.q q w R.R.R.e E.R.E.cX1.E.E.R.R.w MXw e E.R.E.E.R.E.cXL.e e L.e E.",
"E.  E.1.E.L.e E.      cXE.E.E.R.R.E.E.E.R.w cXE.R.E.  R.w 1.cXmX1.mXw 1.E.cXE.R.E.  E.E.sX1.  R.w R.R.e cXE.R.R.e w w E.cXR.e R.",
"E.E.E.E.cXE.E.R.E.E.E.E.E.E.E.E.R.R.R.E.E.cXE.E.E.E.E.cXE.cXe E.R.R.1.R.E.E.E.E.R.  E.E.R.E.E.E.e E.R.R.R.R.R.R.1.e E.R.  E.E.E.",
"e mXR.E.E.E.cXE.  R.  E.1.R.E.  E.q e R.cXE.E.sX1.E.R.E.E.E.E.        w sXE.e e E.e e E.E.  E.e e R.E.R.E.E.R.R.E.cXe mXcX  cXE.",
"E.R.L.1.E.E.cXE.cXE.    E.E.1.E.E.cXR.E.E.E.e 1.MXR.1.E.E.E.R.        L.kXcXR.R.E.R.E.1.E.  E.E.R.e cXR.E.E.R.E.cXL.L.L.E.E.e   ",
"E.R.cX1.E.E.e cX            E.E.sXE.E.e e E.1.E.E.R.1.cXE.sXE.E.E.sXcXkXmXcXE.  E.E.E.E.E.E.e mXL.MXe E.E.E.E.E.cXE.E.E.cX1.1.cX",
"L.1.E.E.E.E.E.E.MXcX  sXsXw   sXsXw sXE.cXcXe     R.R.    sXkXsXE.pXsXkXpXsXE.E.E.  E.  E.sXw w 1.q e E.E.    E.E.E.E.E.E.  1.e ",
"w E.1.e cXR.R.E.cXcXsXw sXL.sXsXsXkXkX                    sXaXaXkXuXsXkXkXsX    E.  sX  E.L.E.E.e q cXcXcX  E.E.E.cXcXE.E.cXE.  ",
"E.E.e L.R.R.cXE.E.E.sXMXe sXsXmXkXsXcX            cXcX      aXyXtXsXsXaXkXE.E.E.E.  sXE.  e   R.1.E.E.E.E.E.    E.e E.E.cXkXE.E.",
"  E.E.E.R.sXE.E.E.        e cXq kXkX  cXcX        sX        kXuXtXE.sXpXkX    sXsX    sX    e MXE.E.E.L.e   E.        cXE.cXE.  ",
"  E.  E.E.sXE.cX  E.sXE.R.E.cXsXsXsXsXcXcX      sXsXkX      sXpXtXpXkXiXkX  sXaXkXsXE.kX    kXaXsXE.E.q cX        E.  E.E.E.E.  ",
"  E.E.e e E.E.cXE.  kXkXE.sXkXsXsXsXsXkXmXsX    sXkXpXsX    sXaXuXyXaXpXkX  kXiXaX  E.sX  sXsXsXcXL.  E.  sXsX    E.  E.E.  E.  ",
"    E.R.kXE.cXE.E.  kXsX  sXsXsXcXq kXaXsX        kXpXkX      kXiXyXpXaXsXcXiXiXL.        kXsXsX  cXE.    aXkX    E.E.  E.E.    ",
"  E.E.  sXR.1.      sXsX  sXkX  sXmXpXiX        sXkXaXaX      kXpXyXuXaXsXiXuXaX        kXL.w kXsXE.cX  aXkXsX            E.E.E.",
"      sXkX  E.      kX  cXmXaX1.sXaXiXiX    sXsXkXaXkXaX      kXpXyXyXaXaXuXiXsX    sXsXw pXyXpXsXcXcXw q q MXsX  E.  E.E.E.E.E.",
"      kXkX    E.E.  kXsX  aXiXsXkXpXuXaX  sXsX  kXsXkXiX      kXw uXyXaXuXuXaXE.    sXsXpXMXpXcXcXcXcXL.aXmXnXL.cXsXE.      sXE.",
"  sXsXkXkX    E.    aXsX  kXiXaXkXpXuXaX  sXsX  pXsXsXiXsX    sXaXuXuXiXyXpXsXE.      sXkXiXiXaX    cXsXaXaXnXmXcXe E.E.sXsXsXsX",
"  sXiXkXkXsXsXsX    aXsX  kXuXaXaXpXiXkX  sXE.  iXsX  pXkX  sXkXiXyXyXuXyXkXsX  sX    sXsXaXuXiX    L.pXaXiXq e   kXE.E.sXaXaXkX",
"  aXtXpXsXkXsXkX    aXsX  pXiXkXkXpXuXkX  kXsX  iXsX  iXpX  sXkXiXtXyXtXiXkX      E.  sXkXkXyXyXE.E.E.aXiXyXpXL.cXkXE.E.sXpXiXsX",
"sXpXtXyXkXsXkXsX    aXsX  pXuXpXaXiXyXkXE.E.sX  iXsX  iXaX  sXaXyXyXuXtXiXsX  sX  sX  sXsXaXyXyXiXE.sXaXyXuXaXsX  kXsXR.sXiXyXkX",
"sXuXyXyXiX  sXsX    aXsXsXaXyXpXaXyXuXsXE.E.aXsXiXsX  iXaX  sXaXuXyXyXyXpX        sXsX  sXpXyXyXtXsXsXpXyXuXaXcXcXpXsXE.sXuXyXkX",
"kXuXyXyXiX  sXkX    iXsXsXaXyXuXpXyXiXsXE.E.pXpXiXsX  iXpXsXsXaXyXuXtXyXsX        sXsX    pXyXyXrXpXcXiXyXyXaXsXE.pXsX  kXyXuXkX",
"sXuXtXyXiX  sXaX    iXsXsXpXuXuXiXyXuXsX    sXyXpXE.E.iXpXsXsXaXyXyXtXiXsX    sX  pX      iXiXiXrXyXaXiXtXuXpX  E.aXkX  kXyXuXkX",
"kXuXyXtXiX    sX    iXsXsXpXuXaXiXyXuXkX    E.iXuX  sXiXiXsXsXiXyXyXyXkX      sX  kX      uXpXpXtXtXpXiXtXyXpXcX  sXpX  kXtXyXkX",
"kXuXyXyXpXsX  kX    iXsXsXpXyXpXuXyXuXkX    sXaXuXE.sXpXiXkXkXpXuXtXyXsX    sXsX  kX      uXpXaXtXyXkXkXuXuXq MXE.  aX  kXyXyXkX",
"sXiXyXiXkXcXE.kXkXsXiXsXsXiXtXiXyXyXyXkX    kXaXaXiXsXiXiXaXaXiXyXtXpX      sXsX  sX    aXiXaXkXpXiXpXuXuXaXkXcXcX  aXsXaXyXyXkX",
"sXiXyXaXsX  E.sXkXpXiXsXsXiXtXiXyXyXyXaX    pXiXsXsXuXiXiXw mXuXtXtXaX      sXsX  sX  sXyXkXaXkXiXtXiXyXrXyXsXnXcXE.iXkXaXtXyXkX",
"sXiXyXyXkXR.E.sX  aXiXsXsXiXyXiXuXyXyXaX  sXpXpXsXsXyXyXuXL.pXuXyXuXkXsX    sX    sXaXkXpXpXaXaXyXtXaXyXtXnXkXe e   aXpXaXtXyXkX",
"  iXyXiXsXE.cXsXE.sXiXsXsXiXtXuXuXtXyXaXsXaXyXsX  sXuXtXuXsXaXuXtXaXaXkX    sX      kXuXaXaXaXkXuXtXpXyXrXyXkX      kXuXpXyXuXkX",
"sXuXyXiXe E.L.sXE.sXiXsXsXpXyXyXuXtXtXaXsXuXuXsX  sXiXtXuXaXuXyXyXsXpXkX    sX      kXiXE.sXpXkXiXyXiXyXtXyXkX  E.  sXyXyXtXyXkX",
"sXuXyXuXkX  sXkX    iXsXsXpXyXtXuXyXrXpXkXyXiX    sXpXyXyXyXtXtXiXsXiXkX    sX    sXuXE.    iXaXiXyXiXyXtXyXsX    E.  yXtXrXyXkX",
"  iXyXuXkX    pX    pXsXsXiXtXtXyXyXrXiXpXyXkX    sXsXuXyXyXyXtXiXsXpXkX    E.cXE.uXsX  R.sXaXkXuXyXiXrXrXuXsX  E.R.  pXtXtXuXkX",
"  iXyXuXaX  E.~ sX  iXsX  pXyXtXyXuXrXuXyXuXsX  E.R.sXuXyXyXtXtXiXsXaXkX  sXE.E.aXsXE.E.E.sXaXpXuXyXiXtXrXyXkX  R.R.  aXtXtXuXkX",
"sXuXyXuXkX    sXsX  iXsX  kXuXtXuXuXrXtXtXiXsX  E.sXkXyXyXyXrXtXkXsXuXkX      aX1.E.E.E.R.sXaXpXyXyXiXtXrXuXsX  E.R.  sXyXtXuXkX",
"kXiXyXyXaX    sXsX  pXsX  sXpXtXyXiXrXyXuXpXcX  E.kXkXuXyXtXrXtXkXsXuXaXsXsXaXsXE.E.E.  E.sXsXpXtXyXiXrXrXiXsX  E.E.  sXyXrXyXkX",
"kXuXyXuXaX      kX  uXsX  sXpXtXtXiXyXtXuXaXE.E.1.kXkXiXuXtXrXtXkXkXiXpXkXpXiX              mXpXyXyXiXtXrXyXsX  E.E.  sXiXrXyXkX",
"kXuXyXuXpX      pXsXiXsX  sXaXyXrXuXuXtXpX1.E.  e mXkXiXyXyXtXyXsXkXiXaXpXuXsX        E.  sXiXaXuXyXiXtXrXyXsXE.sXkXE.cXiXtXyXkX",
"kXiXtXyXiX      pXsXuXsX  sXaXuXtXuXyXtXpXsX  E.sXaXaXiXyXyXrXiXsXkXiXiXuXaX  E.E.  L.cX  E.aXaXuXyXpXyXrXyXE.E.sXkX    iXtXyXkX",
"kXiXtXyXiX      kXkXiXsX  sXaXuXyXyXuXtXiXsXR.L.sXsXaXyXyXyXtXaX  kXuXuXiXsX    cXcXE.    cXpXaXuXyXpXyXtXyXsX  E.kX  sXuXyXyXkX",
"sXiXtXuXaXsX    kXiXpX    sXaXuXyXyXuXtXiXsX  cXsXsXkXyXiXyXyXaX  kXiXiXsX      e   E.E.E.cXiXq uXuXiXyXtXtXsX  E.kX  sXiXtXyXkX",
"sXiXtXyXaX      kXiXkX  sXsXaXuXyXyXyXrXiX      kXsXkXyXyXyXyXkX  kXiXaXE.        cX1.  E.cXaXaXyXiXpXyXtXtXkX  sXsX  sXaXtXuXkX",
"sXiXtXyXaX      kXuXaX    sXaXuXyXyXuXrXiX      sXkXkXyXuXyXtXsX  aXiXaXE.      w e E.E.  cXaXkXyXiXkXyXyXyXaX    kX    aXyXuXsX",
"kXiXtXuXaX      kXuXkX    sXaXiXyXyXuXrXpX      sXkXkXyXyXyXtXsX  aXiXpXcXcXcX  cXw E.R.  E.aXkXyXuXkXuXtXyXpX    sX    aXyXyXsX",
"kXuXtXyXiX      kXyXsX    kXpXpXyXyXuXrXiX      kXaXkXuXuXyXyXsXsXaXiXaXcXcXq cX    w   cXsXkXkXyXiXkXiXyXuXiX    kX    iXtXyXsX",
"kXuXtXyXpXsX    kXyX      kXpXiXuXyXiXtXuXsX    aXaXkXuXuXyXtXsXsXpXiXaX  aXcXE.cX  E.E.    kXaXyXiXsXiXuXuXuXsX  sX    aXyXyXsX",
"kXuXtXyXpXkX    aXiXsX    kXiXpXyXyXuXtXuXsX    aXaXkXuXuXyXtXkXsXpXuXkX  iXcXaXcXE.R.      kXuXtXiXsXpXuXiXiXkXsXkX  sXaXyXyXsX",
"kXyXyXyXpXkX    uXaX      aXiXiXuXtXuXtXiXsX    iXaXaXyXiXyXtXaXsXpXiXaXkXiXpXuXcX  e cX  cXiXuXyXiXsXkXiXiXpXaXsXsX  sXaXyXuXsX",
"kXyXtXtXaXaX    yXkX      aXiXiXuXtXiXyXiXsX    iXpXkXyXiXyXtXaXsXaXuXaXsXsXrXkX    cXMX  e 0 yXtXiXkXkXiXiXuXaXkXsX  sXpXtXyXsX",
"kXyXtXtXiXaX    yXsX    sXpXiXpXuXtXiXuXiXkX  sXaXaXaXyXuXyXrXiXsXiXuXaXkXiXyXsXsXe       cXiXyXuXuXsXsXpXiXuXaXkXsX  kXiXtXyXkX",
"pXyXtXyXpXaXsXsXuXsX    sXaXiXiXuXtXuXuXiXsX  sXpXkXkXyXuXyXrXuXsXpXuXpXiXtXaXE.  e       sXuXyXuXuXsX  pXiXiXkXkXkX  aXuXrXyXkX",
"iXyXtXyXiXaXkXkXiXsX    kXpXuXpXuXyXuXuXuXkX  sXpXkXkXyXiXyXrXtXaXaXiXiXtXuXE.E.    E.cX  kXuXyXiXuXkX  kXpXiXkXsXkXsXaXuXtXyXkX",
"iXyXtXyXyXaXkXaXiXkX  sXaXuXyXaXiXaXiXpXuXaXsXsXiXaXpXyXiXyXrXrXiXpXiXpXtXaX  sX        sXpXtXyXpXuXpX  sXpXiXkX  aXsXpXuXtXyXkX",
"iXtXyXtXyXiXaXkXaXkXsXkXpXyXyXpXpXaXpXpXiXaXsXkXiXaXiXyXiXyXtXrXtXiXpXpXyXaX            aXuXyXiXaXtXiX    iXiXkX  sXkXiXuXrXyXkX",
"iXtXyXtXyXuXiXaXsXkXsXkXiXtXuXpXaXaXkXkXkXsXkXpXiXkXiXuXiXyXyXtXrXyXpXpXuXiX          kXuXyXiXaXaXyXiX    aXiXkX  sXaXiXiXrXtXkX",
"uXyXuXtXyXiXpXuXaXsXkXaXyXyXpXsXsXsXsXsXkXsXpXiXsXaXpXuXpXyXuXyXtXrXyXaXkXaXsX      sXiXuXiXaXsXpXuXpX    aXpXsX    pXiXiXrXtXkX",
"iXtXuXpXyXuXpXiXpXsXkXuXuXpXiXaXkXaXaXiXiXiXpXkXsXiXiXiXaXkXpXuXtXrXtXpXsXkXaX    sXpXyXpXpXsXkXiXyXaX  cXaXaXsX  sXuXpXuXrXtXkX",
"uXtXyXpXpXiXuXpXkXsXaXiXuXiXkXsXaXiXpXaXkXpXkXsXaXiXaXaXaXL.sXsXpXuXtXyXkXkXaXkXsXaXiXaXiXaXsXaXyXuXaXsXsXaXkX    iXiXpXuXrXtXpX",
"yXyXuXiXpXaXiXiXaXaXiXiXpXkXsXkXiXaXsXsX  sXsXkXpXkXsXsXMXe     sXkXiXtXuXkXkXkXaXaXkXaXpXkXaXiXyXpXaXsX  sX  sXpXiXsXpXyXtXyXpX",
"yXuXiXuXuXaXaXaXaXpXaXsXkXaXaXaXpXsX  sXsXkXpXpXaXsXsXe mX    E.cXsXsXuXtXpXsXkXkXsXkXiXkXaXiXyXpXkXsX      sXiXiXsX  uXyXtXyXiX",
"tXiXpXuXiXsXkXsXsXsXsXaXpXsXsXkXsX  sXiXiXaXaXsX    cXw cX  e 1.E.    yXyXpXsXsXsXsXiXiXaXiXuXpXaXsX      sXpXaXsX  sXtXyXyXtXuX",
"iXkXsXkXkXsX        aXkX      kXkXaXiXaXsX      sXsXaXaXsXkXsXkX  sXiXtXiXsXsXkXaXpXuXiXuXpXpXaXiXiXiXiXiXiXpXaXaXaXpXyXiXiXtXyX",
"pXpXaXaXsXsXsXsXsXkXaXsXsXsXsXkXaXkXsXcX  aXiXiXiXiXuXiXiXpXuXuXyXyXuXaXiXiXyXuXyXyXuXuXuXuXuXiXiXpXiXpXiXiXiXiXyXyXyXtXiXpXiXuX"
};
