/* XPM */
static char *b639ed190cd14864f69ffd24f2b43b10[] = {
/* columns rows colors chars-per-pixel */
"64 64 256 2 ",
"   c black",
".  c #0000A8",
"X  c #00A800",
"o  c #00A8A8",
"O  c #A80000",
"+  c #A800A8",
"@  c #A85400",
"#  c gray66",
"$  c gray33",
"%  c #5454FC",
"&  c #54FC54",
"*  c #54FCFC",
"=  c #FC5454",
"-  c #FC54FC",
";  c #FCFC54",
":  c gray99",
">  c #ECECEC",
",  c gainsboro",
"<  c #D0D0D0",
"1  c #C0C0C0",
"2  c #B4B4B4",
"3  c gray66",
"4  c #989898",
"5  c gray55",
"6  c #7C7C7C",
"7  c gray44",
"8  c #646464",
"9  c gray33",
"0  c #484848",
"q  c gray22",
"w  c #2C2C2C",
"e  c #202020",
"r  c #FC0000",
"t  c #EC0000",
"y  c #E00000",
"u  c #D40000",
"i  c #C80000",
"p  c #BC0000",
"a  c #B00000",
"s  c #A40000",
"d  c #980000",
"f  c #880000",
"g  c #7C0000",
"h  c #700000",
"j  c #640000",
"k  c #580000",
"l  c #4C0000",
"z  c #400000",
"x  c #FCD8D8",
"c  c #FCB8B8",
"v  c #FC9C9C",
"b  c #FC7C7C",
"n  c #FC5C5C",
"m  c #FC4040",
"M  c #FC2020",
"N  c #FC0000",
"B  c #FCA85C",
"V  c #FC9840",
"C  c #FC8820",
"Z  c #FC7800",
"A  c #E46C00",
"S  c #CC6000",
"D  c #B45400",
"F  c #9C4C00",
"G  c #FCFCD8",
"H  c #FCFCB8",
"J  c #FCFC9C",
"K  c #FCFC7C",
"L  c #FCF85C",
"P  c #FCF440",
"I  c #FCF420",
"U  c #FCF400",
"Y  c #E4D800",
"T  c #CCC400",
"R  c #B4AC00",
"E  c #9C9C00",
"W  c #848400",
"Q  c #706C00",
"!  c #585400",
"~  c #404000",
"^  c #D0FC5C",
"/  c #C4FC40",
"(  c #B4FC20",
")  c #A0FC00",
"_  c #90E400",
"`  c #80CC00",
"'  c #74B400",
"]  c #609C00",
"[  c #D8FCD8",
"{  c #BCFCB8",
"}  c #9CFC9C",
"|  c #80FC7C",
" . c #60FC5C",
".. c #40FC40",
"X. c #20FC20",
"o. c #00FC00",
"O. c #00FC00",
"+. c #00EC00",
"@. c #00E000",
"#. c #00D400",
"$. c #04C800",
"%. c #04BC00",
"&. c #04B000",
"*. c #04A400",
"=. c #049800",
"-. c #048800",
";. c #047C00",
":. c #047000",
">. c #046400",
",. c #045800",
"<. c #044C00",
"1. c #044000",
"2. c #D8FCFC",
"3. c #B8FCFC",
"4. c #9CFCFC",
"5. c #7CFCF8",
"6. c #5CFCFC",
"7. c #40FCFC",
"8. c #20FCFC",
"9. c #00FCFC",
"0. c #00E4E4",
"q. c #00CCCC",
"w. c #00B4B4",
"e. c #009C9C",
"r. c #008484",
"t. c #007070",
"y. c #005858",
"u. c #004040",
"i. c #5CBCFC",
"p. c #40B0FC",
"a. c #20A8FC",
"s. c #009CFC",
"d. c #008CE4",
"f. c #007CCC",
"g. c #006CB4",
"h. c #005C9C",
"j. c #D8D8FC",
"k. c #B8BCFC",
"l. c #9C9CFC",
"z. c #7C80FC",
"x. c #5C60FC",
"c. c #4040FC",
"v. c #2024FC",
"b. c #0004FC",
"n. c #0000FC",
"m. c #0000EC",
"M. c #0000E0",
"N. c #0000D4",
"B. c #0000C8",
"V. c #0000BC",
"C. c #0000B0",
"Z. c #0000A4",
"A. c #000098",
"S. c #000088",
"D. c #00007C",
"F. c #000070",
"G. c #000064",
"H. c #000058",
"J. c #00004C",
"K. c #000040",
"L. c #282828",
"P. c #FCE034",
"I. c #FCD424",
"U. c #FCCC18",
"Y. c #FCC008",
"T. c #FCB400",
"R. c #003800",
"E. c #002800",
"W. c #9800E4",
"Q. c #8000CC",
"!. c #7400B4",
"~. c #60009C",
"^. c #500084",
"/. c #440070",
"(. c #340058",
"). c #280040",
"_. c #FCD8FC",
"`. c #FCB8FC",
"'. c #FC9CFC",
"]. c #FC7CFC",
"[. c #FC5CFC",
"{. c #FC40FC",
"}. c #FC20FC",
"|. c #FC00FC",
" X c #E000E4",
".X c #C800CC",
"XX c #B400B4",
"oX c #9C009C",
"OX c #840084",
"+X c #6C0070",
"@X c #580058",
"#X c #400040",
"$X c #FCE8DC",
"%X c #FCE0D0",
"&X c #FCD8C4",
"*X c #FCD4BC",
"=X c #FCCCB0",
"-X c #FCC4A4",
";X c #FCBC9C",
":X c #FCB890",
">X c #FCB080",
",X c #FCA470",
"<X c #FC9C60",
"1X c #F0945C",
"2X c #E88C58",
"3X c #DC8854",
"4X c #D08050",
"5X c #C87C4C",
"6X c #BC7848",
"7X c #B47044",
"8X c #A86840",
"9X c #A0643C",
"0X c #9C6038",
"qX c #905C34",
"wX c #885830",
"eX c #80502C",
"rX c #744C28",
"tX c #6C4824",
"yX c #5C4020",
"uX c #543C1C",
"iX c #483818",
"pX c #403018",
"aX c #382C14",
"sX c #28200C",
"dX c #600064",
"fX c #006464",
"gX c #006060",
"hX c #00001C",
"jX c #00002C",
"kX c #302410",
"lX c #480048",
"zX c #500050",
"xX c #000034",
"cX c gray11",
"vX c #4C4C4C",
"bX c gray36",
"nX c gray25",
"mX c gray19",
"MX c #343434",
"NX c #D8F4F4",
"BX c #B8E8E8",
"VX c #9CDCDC",
"CX c #74C8C8",
"ZX c #48C0C0",
"AX c #20B4B4",
"SX c #20B0B0",
"DX c #00A4A4",
"FX c #009898",
"GX c #008C8C",
"HX c #008484",
"JX c #007C7C",
"KX c #007878",
"LX c #007474",
"PX c #007070",
"IX c #006C6C",
"UX c #980088",
/* pixels */
"mXw mXw mXw mXw mXw w w MXMXw w mXw w mXL.w q L.mXw mXw mXw mXw mXw mXw mXw mXw mXw w w MXMXw w mXw w mXL.w q L.mXw mXw mXw mXw ",
"4 4 4 4 4 # 4 # # 4 4 5 5 5 mXmXq 4 8 7 7 5 6 5 5 5 5 5 5 5 5 5 5 4 4 4 4 4 4 4 4 4 5 5 5 5 mXmXq 2 4 7 6 5 5 4 # 5 5 5 4 4 4 4 ",
"6 7 7 6 6 5 6 5 5 7 7 8 8 vXcXmXL.6 mXnXnXbXbX8 bXbX8 8 7 8 bX8 8 7 6 6 7 6 7 6 7 8 8 8 7 $ cXmXL.# 8 vX$ 8 8 7 6 8 8 7 7 7 7 6 ",
"6 7 7 6 6 6 6 5 6 8 7 bX7 vXw mXMX7 $ vXMX$ bX8 bXbX8 8 8 8 bX8 7 6 6 7 7 6 6 6 7 8 bX7 7 $ w mXMX# 7 vXvX8 bX7 6 8 8 8 7 7 7 6 ",
"6 7 7 6 6 5 5 4 6 bX8 8 7 vXnXL.L.7 q $ q $ $ bXbX8 8 8 8 bXbX8 7 6 6 6 6 6 6 7 7 8 8 7 7 $ nXL.L.# 7 0 vX8 bX7 6 8 8 7 7 7 6 6 ",
"6 7 7 6 6 6 5 5 6 8 bX7 7 vXL.mXmX7 q $ nX0 bXbXbX8 8 8 8 8 bX8 7 6 6 7 6 6 6 7 8 8 7 7 7 $ L.mXmX4 6 0 0 bX8 7 6 8 7 7 7 7 6 6 ",
"6 7 7 6 5 5 5 5 7 7 8 7 7 vXe q mX7 MX$ nXnXbX$ $ 8 8 7 8 8 bXbX7 6 6 7 6 6 5 7 8 8 7 7 7 $ e q mX4 7 vXvX$ bX7 6 7 7 7 7 6 7 6 ",
"6 7 6 6 5 5 5 5 7 7 bX7 7 E E E E E E E E E E E E E E E E E E E E E E E E E E E E E E E E E E E E E $ 0 bX$ bX7 6 7 7 7 6 6 7 5 ",
"6 7 6 6 6 5 5 5 7 7 8 7 7 W ! uXyXyXyXyXyXuXuXuXuXuXuXuXuXyXyXyXyXyXyXyXyXyXuXuXuXuXuXuXuXuXuXiX! W nXnXbX$ bX8 6 6 6 6 6 6 6 4 ",
"6 7 6 6 6 5 4 5 7 7 bX7 7 W $ 8 8 8 8 8 8 8 8 8 8 8 8 8 8 8 8 8 8 8 8 8 8 8 8 8 8 8 8 8 8 8 8 8 ! E w 0 $ bX$ bX7 6 6 6 6 6 5 4 ",
"7 7 7 7 6 5 5 6 6 7 bX7 7 W $ 6 7 7 7 7 7 7 7 8 $ vXmXsXmX0 0 vX8 8 7 bX$ 0 bX7 7 7 7 7 7 7 7 7 ! E w vX$ bXbX8 7 6 6 6 6 6 4 5 ",
"7 7 6 7 6 5 5 6 6 7 bX8 7 W $ 7 7 7 7 7 7 7 $ q nXnXsXkX$ 8 bXbX7 $ $ bXbXMXaXbX7 7 7 7 7 7 7 7 ! W L.q vX8 8 8 7 6 6 6 5 5 5 6 ",
"7 7 6 7 6 4 4 5 6 7 8 8 7 W $ 7 7 7 7 7 7 7 mXe nX8 0 q 8 bX0 nX$ bX0 $ vXnXkXaXbX7 7 7 7 7 7 7 ! W mXnX0 8 bXbX8 6 5 5 5 6 5 6 ",
"bX$ bX$ bX7 8 7 bXvXvXvX$ W $ 7 7 7 7 7 6 6 vXbXbX6 5 8 8 $ w sXsX0 0 MXq $ nXMXpX8 7 7 7 7 7 7 ! W L.w MX0 0 0 vXbX8 8 bXbX8 8 ",
"e e e e e e e e e L.e cXcXW $ 7 7 7 7 7 5 >X4 6 7 8 8 $ q q q kXsXsXsXsXMXbX$ $ vX8 8 7 7 7 7 7 ! W   cXe e e e e e e e e e e e ",
"w w w w w w w w w w L.mXw W $ 7 7 7 7 6 # -X-X5X0 nXmXkXkXaXsXkXkXsXsXkXpXnX0 0 8 7 bX8 7 7 7 7 ! W   cXe e w w w w w w w w w w ",
"mXw w mXL.w q L.mXw mXw mXW $ 7 7 7 7 4 -X-X*X:XrXsX    sXaXsXsXsXkXsXsXsXcXe L.0 0 nXq 8 7 7 7 ! E cXe mXw mXw mXw w w MXMXw w ",
"q 2 4 4 # # 4 # # 5 5 4 4 W $ 7 7 7 6 ;X-X-X*X*X>XqXuXsXcX  sXe sXsXsX    sX  sXsXkXsXsX0 7 7 7 ! E nXbX7 6 5 5 4 4 # # # 4 mXmX",
"L.4 6 7 5 5 6 5 5 8 8 7 7 W $ 7 7 6 ;X-X*X*X-X*X&X-X:X4XeXkXsXkXkXsXsXsX  sXsX    sXsX  aX7 7 7 ! E w w nXbXbX8 7 6 5 6 5 8 cXmX",
"MX5 6 6 5 4 6 5 7 bX8 7 7 W $ 7 7 4 -X*X*X*X*X*X&X*X*X:X1X7XrXuXpXsXsXsXsXsXsX  sXcXsXsXw 7 7 7 ! E w w nXbXbX8 7 6 5 6 6 8 w mX",
"L.5 7 6 5 4 6 6 7 8 7 7 7 W $ 7 6 ;X&X&X*X*X*X*X&X&X-X:X,X<X3X0XiXe sXsXkXL.sX  sXsXsXsXmXbX7 7 ! E L.w q bXbX8 6 5 5 6 6 8 nXL.",
"MX5 7 6 5 5 6 5 7 8 7 7 7 W $ 7 6 ;X-X-X>X1X>X*X-X;X;X:X,X>X,X2XrXsXsXkXkXL.sXsXsXsXsXe L.0 7 7 ! E L.w nX$ bX7 5 5 6 5 6 7 L.mX",
"MX5 7 6 5 5 5 4 7 8 7 7 7 W $ 7 7 5 6X1X2XqX8X4X3X5X5X4X,X>X>X>X6XpXaXaXsXpXe sXsXsXsXsXkXuX7 7 ! E L.w nX8 7 6 5 5 6 5 7 7 e q ",
"MX5 7 6 5 5 5 4 7 7 7 7 7 W $ 7 7 6 6X;X:X8XbXbX9X0X7X2X:X:X>X:X2X9XyXuXMXkXcXkXsXe sXsXsXq 7 7 ! E L.w vX6 6 6 5 6 6 5 7 8 w w ",
"mX5 7 6 5 5 5 4 6 7 7 7 7 W $ 7 6 :X:X*X-X>X,X>X:X>X>X:X;X;X:X:X,X4XrXuXiXuXtXpXsXsXcX  e q 7 7 ! E L.w bX8 6 6 6 6 5 5 6 8 L.mX",
"mX5 7 6 5 5 4 4 6 7 8 7 7 W $ 6 -X*X*X-X-X*X-X-X-X-X*X*X:X>X:X>X2X5X0XyXwX3X,X,XwXsXsX  kX8 7 7 ! E L.0 bX8 7 7 6 6 6 5 6 8 w mX",
"MX5 7 6 6 5 5 4 6 7 bX8 7 W $ 4 -X*X*X-X*X&X*X*X*X&X*X-X:X2X3X4X7X8X7X6X2X6XwX3X,XkXcXsXiX7 7 7 ! E w $ 7 8 8 7 6 6 5 5 6 bXmXe ",
"w 5 7 5 5 5 5 5 5 6 8 8 7 W $ *X*X*X-X*X-X*X*X*X*X*X;X:X>X3X4X7X8X9X6X3X7XeX7X2X1XaXsXaXbX7 7 7 ! E L.vX6 6 6 6 6 6 6 5 6 bXw mX",
"MX5 7 5 5 4 4 4 5 5 8 7 7 W $ # ,X,X:X-X:X>X*X*X-X:X:X:X,X3X2X4X5X5X3X,X8XwX1X3X6XkXe iX8 7 7 7 ! E L.0 7 6 5 5 6 6 5 4 5 $ L.mX",
"w 6 $ bX8 7 7 7 8 8 0 $ $ W $ 6 3XeXrX0XqX8X;X&X-X:X:X:X1X2X,X<X4X5X5X3XqX6X1X3XwXcXe vX7 7 7 7 ! E cXe nXvXbX8 8 8 7 7 8 $ mXw ",
"L.mXcXe e e cXcXe e e e e W $ 7 5 4XpXkXuX6X:X-X-X;X;X:X1X3X1X2X5X6X5X6X8X,X,X6XuXcXMX8 7 7 7 7 ! E   cXe e e e e L.e cXcXw cXMX",
"MXe w w L.w w w w w w w w W $ 7 5 4XyXaXrX:X*X;X;X-X-X,X3X3X2X4X4X5X7X<X:X1X<X9XaXaX$ 7 7 7 7 7 ! E cXe w w w w w w L.mXw e MXw ",
"mXw mXw mXw mXw mXw w w MXW $ 7 6 7XuXiX9X;X*X-X-X-X:X>X1X3X4X5X6X7X8X>X,X,X6X$ nXtX7 7 7 7 7 7 ! E cXL.L.w q L.mXw mXw mXw mXw ",
"4 4 4 # # 4 4 4 4 4 4 4 5 W $ 7 5 >XrXeX6X,X-X-X-X-X;X>X1X3X4X4X5X9X9X,X6X0XqX0XbX8 7 7 7 7 7 7 ! E mXbX6 6 5 4 # 4 # # # 4 4 # ",
"6 6 6 6 6 7 7 5 5 5 6 6 7 W $ 7 6 # ,X>X>X,X:X-X;X-X-X>X2X3X4X5X4X8XqX9XrXqX7X6X9X7 7 7 7 7 7 7 ! E e w bXbX8 6 5 6 5 5 6 6 6 6 ",
"6 6 6 6 6 7 7 5 5 5 5 6 7 W $ 7 7 5 >X>X*X-X:X-X;X;X:X<X3X6X6X6X7X0XqXeXeX9X7X6X7X7 7 7 7 7 7 7 ! E e MX$ $ 8 6 6 6 6 5 5 7 6 6 ",
"6 6 6 5 6 8 8 5 5 5 5 5 7 W $ 7 7 4 >X,X;X:X;X-X:X:X,X4X7X8X8X7X0XqX0X0XqX8X8X7X6X7 7 7 7 7 7 7 ! E cXMXbX$ 8 6 5 6 6 6 6 7 6 6 ",
"6 6 7 5 5 7 bX6 5 5 6 5 6 W $ 7 7 4 -X-X-X;X;X>X1X2X6X9X9X7X8X8XqXwXwXwX9X8X0X5X# 6 7 7 7 7 7 7 ! E e q $ $ 8 6 5 5 6 6 6 7 6 6 ",
"6 6 6 5 5 7 7 8 5 6 6 6 6 W $ 7 7 4 *X-X;X:X,X5X9X0X0X9X8X7X9X0XwXeXwX0X9X0X9X2 &X# 7 7 7 7 7 7 ! E e q $ 8 8 7 6 6 5 5 6 7 6 5 ",
"6 6 6 5 5 7 6 7 7 6 5 6 6 W $ 7 7 5 >X3X3X5X9XwXwXwXqX0X9XqXwXeXeXeX0X8X0X8X# %X$X7 $ 7 7 7 7 7 ! E e q bX8 8 6 5 6 6 5 6 7 6 5 ",
"6 6 6 6 5 7 7 7 6 5 6 6 5 W $ 7 7 6 6 qXqXrXwXqXwXwXwXqXqXqXqXeXeX0X9X9X5 2 %X$X1 sXmX7 7 7 7 7 ! E cXMX$ bX8 6 6 6 6 6 6 7 6 5 ",
"5 6 6 6 5 7 6 7 5 5 6 7 6 W $ 7 7 7 7 7 7 eXrXeXqXqXqXqX0X0XqXwXqX9X7X# -Xx $X%X7 cXe $ 7 7 7 7 ! E cXMXbX8 8 6 6 7 6 6 6 6 5 5 ",
"5 6 6 6 6 7 5 8 6 5 6 7 6 W $ 7 7 7 7 7 7 7 8 wXwXwX0X9X9X0XwXrXeX6X1 &X&X%X$X4 sXcXcXL.8 7 7 7 ! E cX0 8 8 8 5 5 6 6 6 6 7 5 5 ",
"5 7 6 6 6 7 6 8 7 6 5 6 6 W $ 7 7 7 7 7 7 7 7 7 8 9X8X8X9X0XtXyX7X< &X&X%X$X2 mXcXe e cXq 7 7 7 ! E e nX8 8 8 6 5 6 6 6 6 7 5 5 ",
"5 7 6 6 5 7 7 7 6 6 5 6 6 W $ 7 7 7 7 7 7 7 7 7 7 7X6X7X9XwXrX5 *X, , %X$X1 0 cXe e e e L.nXbX8 ! E cXnX8 8 8 7 6 6 6 6 6 6 5 5 ",
"8 $ 8 8 8 bX$ bXbX$ 8 8 8 W $ 7 7 7 7 7 7 7 7 7 7 8X5X7XqX8X# &X%X%X%X$X< $   cXe sXe L.w e e q ! E cXw 0 vXvXbX8 8 bXbXbXbX8 8 ",
"e e e e e e e e e L.e cXcXW $ 7 7 7 7 7 7 7 7 7 7 8X0X0X6X-X%X%X$X%X$X, 8 sXcXcXe L.mXmXmXMXw w ! E   cXe e cXcXe e e e e e e e ",
"w w w w w w w w w w L.mXw W $ 7 7 7 7 7 7 7 7 7 4 # bX5 *X$X$X$X$X$X, 7 sXsXe L.w mXq w q $ vX$ ! E cXe L.w w w w w w w w w w w ",
"mXw w mXL.w q L.mXw mXw mXW $ 7 7 7 7 7 7 7 7 6 < &X1 , $X$X$X$X$X$X4 w cXL.mXMXpXq MXw 0 bX$ bX! E cXe mXw mXw mXw w w MXMXw w ",
"q 2 # 4 # 4 5 4 4 4 # # 4 W $ 7 7 7 7 7 7 7 7 8 5 4 < $X$X$X$X$XG 1 0 L.w q q q q q mXq $ $ $ $ ! E mXbX5 5 5 5 4 # 4 # # 4 mXmX",
"L.# 5 6 5 6 8 7 7 6 5 5 6 W $ 7 7 7 7 7 7 7 tXuX$ 0 2 $X$X$X$X$X, 7 aXw mXq nX0 nXMXpXq $ bX$ $ ! E cXnXbX8 8 7 6 6 6 6 6 8 cXmX",
"q # 6 6 5 6 bX7 7 6 6 5 6 W $ 7 7 7 7 8 bXbXvXbXnXcX# > $X$X$X$X4 pXe w w w nX0 nXmXaX0 $ bXbX$ ! E cXnXbX8 8 7 6 6 7 6 6 8 w mX",
"MX# 6 7 5 7 bX7 7 6 6 5 6 W $ 7 7 7 7 bXyXnX$ bXw   5 : > > : # uXkXL.w w w nX0 nXw q $ $ bX$ $ ! E cX0 bX8 bX8 6 6 7 5 6 bXnXL.",
"q # 6 6 6 7 bX7 6 6 6 5 6 W $ 7 8 vX8 $ nXq vX0 cX  bX, > : < $ kXmXMXw MXMXnX0 MXaXnX$ $ $ $ bX! E cX0 bXbX8 8 6 6 7 5 6 bXL.mX",
"MX# 6 6 6 7 bX7 6 6 6 4 6 W $ 7 bXvXbX0 nXnX0 0 q sXe 2 : > 6 aXMXnXq MXiXvXvXyXq q vX$ $ bXbX8 ! E cXnX8 bX8 8 6 6 7 5 6 bXe q ",
"w # 6 6 6 7 8 7 7 6 6 4 7 W $ 6 6 6 6 6 6 6 6 6 6 6 6 6 6 6 6 6 6 6 6 6 6 6 6 6 6 6 6 6 6 6 6 6 ! E cXq bX8 8 8 6 5 6 5 6 bXw w ",
"w # 6 6 6 7 bX7 7 6 6 4 7 W W W W W W W W W W W W W W W W W W W W W W W W W W W W W W W W W W E E W cX0 $ $ 8 8 7 6 5 4 6 8 L.mX",
"w # 6 6 6 8 bX7 7 6 5 5 7 8 q L.e e e L.L.w cXcXe L.L.L.w e cXcXcXq L.q q q nXnXq w w mXmXL.w e L.w e 0 $ bX8 8 7 7 7 5 6 8 w mX",
"MX# 6 6 5 8 bX7 7 6 6 5 7 6 vXq vX0 nXvXvX$ q w nX0 vXvX$ q L.cXw 7 vXbX8 8 6 6 8 0 $ bX$ vXvX0 vX$ mX0 vXbX8 8 7 6 6 5 6 8 mXe ",
"w # 6 6 5 bX8 7 7 6 5 4 7 6 $ $ 8 $ $ bXbX8 0 nXbXbXbX$ bXvXw mXmX6 $ 7 7 6 5 4 7 bX7 8 8 8 bX$ bX8 MXnX$ 8 8 8 7 7 6 5 6 8 w mX",
"MX# 6 5 5 8 8 7 7 6 5 5 7 6 $ $ 8 $ $ bXbX8 0 0 bXbXbX$ bX0 L.mXq 6 $ 7 7 7 5 4 8 $ 7 8 8 8 $ bXbXbXMX0 bX8 8 7 7 6 5 5 6 8 L.mX",
"w 5 bX8 bX0 vX$ $ 8 8 bX$ bXnXnXvXnX0 0 0 0 nXq nX0 0 q nX0 mXw w 7 nX$ $ $ 7 7 $ nX$ vX$ 0 nX0 0 0 w q 0 vXvXvX$ bX8 8 bX8 mXw ",
"L.mXe e e e cXcXe e e e e e e e e e e e e e e e e L.e cXcXw cXMXL.mXcXe e e e cXe e e e e e e e e e e e e e e e e L.e cXcXw cXMX",
"MXe w w L.w w w w w w w w w w w w w w w w w w w w w L.mXw e MXw MXe w w L.w w w w w w w w w w w w w w w w w w w w w L.mXw e MXw "
};
